<svg version="1.1" xmlns="http://www.w3.org/2000/svg" xmlns:xlink="http://www.w3.org/1999/xlink" width="988" height="268"><defs/><g><text fill="#eeeeee" stroke="none" font-family="Arial" font-size="24px" font-style="normal" font-weight="normal" text-decoration="none" x="0" y="0"> </text><text fill="#eeeeee" stroke="none" font-family="Arial" font-size="24px" font-style="normal" font-weight="normal" text-decoration="none" x="0" y="30"> </text><text fill="#eeeeee" stroke="none" font-family="Arial" font-size="24px" font-style="normal" font-weight="normal" text-decoration="none" x="0" y="60"> </text><text fill="#eeeeee" stroke="none" font-family="Arial" font-size="24px" font-style="normal" font-weight="normal" text-decoration="none" x="0" y="90"> </text><text fill="#eeeeee" stroke="none" font-family="Arial" font-size="24px" font-style="normal" font-weight="normal" text-decoration="none" x="0" y="120"> </text><text fill="#eeeeee" stroke="none" font-family="Arial" font-size="24px" font-style="normal" font-weight="normal" text-decoration="none" x="0" y="150"> </text><text fill="#eeeeee" stroke="none" font-family="Arial" font-size="24px" font-style="normal" font-weight="normal" text-decoration="none" x="0" y="180"> </text><text fill="#eeeeee" stroke="none" font-family="Arial" font-size="24px" font-style="normal" font-weight="normal" text-decoration="none" x="0" y="210"> </text><text fill="#eeeeee" stroke="none" font-family="Arial" font-size="24px" font-style="normal" font-weight="normal" text-decoration="none" x="0" y="240"> </text><text fill="#eeeeee" stroke="none" font-family="Arial" font-size="24px" font-style="normal" font-weight="normal" text-decoration="none" x="200" y="0"> </text><text fill="#eeeeee" stroke="none" font-family="Arial" font-size="24px" font-style="normal" font-weight="normal" text-decoration="none" x="200" y="30"> </text><text fill="#eeeeee" stroke="none" font-family="Arial" font-size="24px" font-style="normal" font-weight="normal" text-decoration="none" x="200" y="60"> </text><text fill="#eeeeee" stroke="none" font-family="Arial" font-size="24px" font-style="normal" font-weight="normal" text-decoration="none" x="200" y="90"> </text><text fill="#eeeeee" stroke="none" font-family="Arial" font-size="24px" font-style="normal" font-weight="normal" text-decoration="none" x="200" y="120"> </text><text fill="#eeeeee" stroke="none" font-family="Arial" font-size="24px" font-style="normal" font-weight="normal" text-decoration="none" x="200" y="150"> </text><text fill="#eeeeee" stroke="none" font-family="Arial" font-size="24px" font-style="normal" font-weight="normal" text-decoration="none" x="200" y="180"> </text><text fill="#eeeeee" stroke="none" font-family="Arial" font-size="24px" font-style="normal" font-weight="normal" text-decoration="none" x="200" y="210"> </text><text fill="#eeeeee" stroke="none" font-family="Arial" font-size="24px" font-style="normal" font-weight="normal" text-decoration="none" x="200" y="240"> </text><text fill="#eeeeee" stroke="none" font-family="Arial" font-size="24px" font-style="normal" font-weight="normal" text-decoration="none" x="400" y="0"> </text><text fill="#eeeeee" stroke="none" font-family="Arial" font-size="24px" font-style="normal" font-weight="normal" text-decoration="none" x="400" y="30"> </text><text fill="#eeeeee" stroke="none" font-family="Arial" font-size="24px" font-style="normal" font-weight="normal" text-decoration="none" x="400" y="60"> </text><text fill="#eeeeee" stroke="none" font-family="Arial" font-size="24px" font-style="normal" font-weight="normal" text-decoration="none" x="400" y="90"> </text><text fill="#eeeeee" stroke="none" font-family="Arial" font-size="24px" font-style="normal" font-weight="normal" text-decoration="none" x="400" y="120"> </text><text fill="#eeeeee" stroke="none" font-family="Arial" font-size="24px" font-style="normal" font-weight="normal" text-decoration="none" x="400" y="150"> </text><text fill="#eeeeee" stroke="none" font-family="Arial" font-size="24px" font-style="normal" font-weight="normal" text-decoration="none" x="400" y="180"> </text><text fill="#eeeeee" stroke="none" font-family="Arial" font-size="24px" font-style="normal" font-weight="normal" text-decoration="none" x="400" y="210"> </text><text fill="#eeeeee" stroke="none" font-family="Arial" font-size="24px" font-style="normal" font-weight="normal" text-decoration="none" x="400" y="240"> </text><text fill="#eeeeee" stroke="none" font-family="Arial" font-size="24px" font-style="normal" font-weight="normal" text-decoration="none" x="600" y="0"> </text><text fill="#eeeeee" stroke="none" font-family="Arial" font-size="24px" font-style="normal" font-weight="normal" text-decoration="none" x="600" y="30"> </text><text fill="#eeeeee" stroke="none" font-family="Arial" font-size="24px" font-style="normal" font-weight="normal" text-decoration="none" x="600" y="60"> </text><text fill="#eeeeee" stroke="none" font-family="Arial" font-size="24px" font-style="normal" font-weight="normal" text-decoration="none" x="600" y="90"> </text><text fill="#eeeeee" stroke="none" font-family="Arial" font-size="24px" font-style="normal" font-weight="normal" text-decoration="none" x="600" y="120"> </text><text fill="#eeeeee" stroke="none" font-family="Arial" font-size="24px" font-style="normal" font-weight="normal" text-decoration="none" x="600" y="150"> </text><text fill="#eeeeee" stroke="none" font-family="Arial" font-size="24px" font-style="normal" font-weight="normal" text-decoration="none" x="600" y="180"> </text><text fill="#eeeeee" stroke="none" font-family="Arial" font-size="24px" font-style="normal" font-weight="normal" text-decoration="none" x="600" y="210"> </text><text fill="#eeeeee" stroke="none" font-family="Arial" font-size="24px" font-style="normal" font-weight="normal" text-decoration="none" x="600" y="240"> </text><text fill="#eeeeee" stroke="none" font-family="Arial" font-size="24px" font-style="normal" font-weight="normal" text-decoration="none" x="800" y="0"> </text><text fill="#eeeeee" stroke="none" font-family="Arial" font-size="24px" font-style="normal" font-weight="normal" text-decoration="none" x="800" y="30"> </text><text fill="#eeeeee" stroke="none" font-family="Arial" font-size="24px" font-style="normal" font-weight="normal" text-decoration="none" x="800" y="60"> </text><text fill="#eeeeee" stroke="none" font-family="Arial" font-size="24px" font-style="normal" font-weight="normal" text-decoration="none" x="800" y="90"> </text><text fill="#eeeeee" stroke="none" font-family="Arial" font-size="24px" font-style="normal" font-weight="normal" text-decoration="none" x="800" y="120"> </text><text fill="#eeeeee" stroke="none" font-family="Arial" font-size="24px" font-style="normal" font-weight="normal" text-decoration="none" x="800" y="150"> </text><text fill="#eeeeee" stroke="none" font-family="Arial" font-size="24px" font-style="normal" font-weight="normal" text-decoration="none" x="800" y="180"> </text><text fill="#eeeeee" stroke="none" font-family="Arial" font-size="24px" font-style="normal" font-weight="normal" text-decoration="none" x="800" y="210"> </text><text fill="#eeeeee" stroke="none" font-family="Arial" font-size="24px" font-style="normal" font-weight="normal" text-decoration="none" x="800" y="240"> </text><g transform="translate(-6,-182) scale(1,1)"><path fill="#adc8ff" stroke="none" d="M 16 202 L 389 202 L 389 439 L 16 439"/></g><g transform="translate(-6,-182) scale(1,1)"><path fill="#adc8ff" stroke="none" d="M 16 202 L 26 192 L 399 192 L 389 202"/></g><g transform="translate(-6,-182) scale(1,1)"><path fill="#adc8ff" stroke="none" d="M 399 192 L 389 202 L 389 439 L 399 429"/></g><g transform="translate(-6,-182) scale(1,1)"><path fill="none" stroke="#000000" d="M 16 202 L 389 202 L 389 439 L 16 439 L 16 202" stroke-miterlimit="10"/></g><g transform="translate(-6,-182) scale(1,1)"><path fill="none" stroke="#000000" d="M 16 202 L 26 192 L 399 192 L 389 202 L 16 202" stroke-miterlimit="10"/></g><g transform="translate(-6,-182) scale(1,1)"><path fill="none" stroke="#000000" d="M 399 192 L 389 202 L 389 439 L 399 429 L 399 192" stroke-miterlimit="10"/></g><g transform="translate(-6,-182) scale(1,1)"><g><path fill="none" stroke="none"/><text fill="#000000" stroke="none" font-family="Arial" font-size="13px" font-style="normal" font-weight="bold" text-decoration="none" x="181.3291015625" y="220">Cliente</text></g></g><g transform="translate(-6,-182) scale(1,1)"><path fill="#C0C0C0" stroke="none" d="M 615 209 L 980 209 L 980 446 L 615 446" opacity="0.2"/></g><g transform="translate(-6,-182) scale(1,1)"><path fill="#C0C0C0" stroke="none" d="M 615 209 L 625 199 L 990 199 L 980 209" opacity="0.2"/></g><g transform="translate(-6,-182) scale(1,1)"><path fill="#C0C0C0" stroke="none" d="M 990 199 L 980 209 L 980 446 L 990 436" opacity="0.2"/></g><g transform="translate(-6,-182) scale(1,1)"><path fill="#adc8ff" stroke="none" d="M 608 202 L 973 202 L 973 439 L 608 439"/></g><g transform="translate(-6,-182) scale(1,1)"><path fill="#adc8ff" stroke="none" d="M 608 202 L 618 192 L 983 192 L 973 202"/></g><g transform="translate(-6,-182) scale(1,1)"><path fill="#adc8ff" stroke="none" d="M 983 192 L 973 202 L 973 439 L 983 429"/></g><g transform="translate(-6,-182) scale(1,1)"><path fill="none" stroke="#000000" d="M 608 202 L 973 202 L 973 439 L 608 439 L 608 202" stroke-miterlimit="10"/></g><g transform="translate(-6,-182) scale(1,1)"><path fill="none" stroke="#000000" d="M 608 202 L 618 192 L 983 192 L 973 202 L 608 202" stroke-miterlimit="10"/></g><g transform="translate(-6,-182) scale(1,1)"><path fill="none" stroke="#000000" d="M 983 192 L 973 202 L 973 439 L 983 429 L 983 192" stroke-miterlimit="10"/></g><g transform="translate(-6,-182) scale(1,1)"><g><path fill="none" stroke="none"/><text fill="#000000" stroke="none" font-family="Arial" font-size="13px" font-style="normal" font-weight="bold" text-decoration="none" x="683.36279296875" y="220">Servidor local (contenedor docker)</text></g></g><g transform="translate(-6,-182) scale(1,1)"><rect fill="#C0C0C0" stroke="none" x="799" y="255" width="87" height="52" opacity="0.2"/></g><g transform="translate(-6,-182) scale(1,1)"><rect fill="#ffd6ad" stroke="none" x="792" y="248" width="87" height="52"/></g><g transform="translate(-6,-182) scale(1,1)"><path fill="none" stroke="#000000" d="M 792 248 L 879 248 L 879 300 L 792 300 L 792 248 Z Z" stroke-miterlimit="10"/></g><g transform="translate(-6,-182) scale(1,1)"><rect fill="#ffd6ad" stroke="none" x="792" y="248" width="87" height="52"/></g><g transform="translate(-6,-182) scale(1,1)"><path fill="none" stroke="#000000" d="M 792 248 L 879 248 L 879 300 L 792 300 L 792 248 Z Z" stroke-miterlimit="10"/></g><g transform="translate(-6,-182) scale(1,1)"><g><path fill="none" stroke="none"/><text fill="#000000" stroke="none" font-family="Arial" font-size="13px" font-style="normal" font-weight="normal" text-decoration="none" x="808.763671875" y="264">«artifact»</text></g></g><g transform="translate(-6,-182) scale(1,1)"><g><path fill="none" stroke="none"/><text fill="#000000" stroke="none" font-family="Arial" font-size="13px" font-style="normal" font-weight="bold" text-decoration="none" x="835.5" y="274"></text><path fill="none" stroke="#000000" d="M 835.5 280.5 L 835.5 280.5" stroke-miterlimit="10"/></g></g><g transform="translate(-6,-182) scale(1,1)"><g><path fill="none" stroke="none"/><text fill="#000000" stroke="none" font-family="Arial" font-size="13px" font-style="normal" font-weight="normal" text-decoration="none" x="797.92822265625" y="294">imageCell.py</text></g></g><g transform="translate(-6,-182) scale(1,1)"><rect fill="#C0C0C0" stroke="none" x="735" y="359" width="120.29345703125" height="52" opacity="0.2"/></g><g transform="translate(-6,-182) scale(1,1)"><rect fill="#ffd6ad" stroke="none" x="728" y="352" width="120.29345703125" height="52"/></g><g transform="translate(-6,-182) scale(1,1)"><path fill="none" stroke="#000000" d="M 728 352 L 848.29345703125 352 L 848.29345703125 404 L 728 404 L 728 352 Z Z" stroke-miterlimit="10"/></g><g transform="translate(-6,-182) scale(1,1)"><rect fill="#ffd6ad" stroke="none" x="728" y="352" width="120.29345703125" height="52"/></g><g transform="translate(-6,-182) scale(1,1)"><path fill="none" stroke="#000000" d="M 728 352 L 848.29345703125 352 L 848.29345703125 404 L 728 404 L 728 352 Z Z" stroke-miterlimit="10"/></g><g transform="translate(-6,-182) scale(1,1)"><g><path fill="none" stroke="none"/><text fill="#000000" stroke="none" font-family="Arial" font-size="13px" font-style="normal" font-weight="normal" text-decoration="none" x="761.410400390625" y="368">«artifact»</text></g></g><g transform="translate(-6,-182) scale(1,1)"><g><path fill="none" stroke="none"/><text fill="#000000" stroke="none" font-family="Arial" font-size="13px" font-style="normal" font-weight="bold" text-decoration="none" x="788.146728515625" y="378"></text><path fill="none" stroke="#000000" d="M 788.146728515625 384.5 L 788.146728515625 384.5" stroke-miterlimit="10"/></g></g><g transform="translate(-6,-182) scale(1,1)"><g><path fill="none" stroke="none"/><text fill="#000000" stroke="none" font-family="Arial" font-size="13px" font-style="normal" font-weight="normal" text-decoration="none" x="732.5" y="398">onnxruntime 1.14.1</text></g></g><g transform="translate(-6,-182) scale(1,1)"><rect fill="#C0C0C0" stroke="none" x="911" y="255" width="62.47265625" height="52" opacity="0.2"/></g><g transform="translate(-6,-182) scale(1,1)"><rect fill="#ffd6ad" stroke="none" x="904" y="248" width="62.47265625" height="52"/></g><g transform="translate(-6,-182) scale(1,1)"><path fill="none" stroke="#000000" d="M 904 248 L 966.47265625 248 L 966.47265625 300 L 904 300 L 904 248 Z Z" stroke-miterlimit="10"/></g><g transform="translate(-6,-182) scale(1,1)"><rect fill="#ffd6ad" stroke="none" x="904" y="248" width="62.47265625" height="52"/></g><g transform="translate(-6,-182) scale(1,1)"><path fill="none" stroke="#000000" d="M 904 248 L 966.47265625 248 L 966.47265625 300 L 904 300 L 904 248 Z Z" stroke-miterlimit="10"/></g><g transform="translate(-6,-182) scale(1,1)"><g><path fill="none" stroke="none"/><text fill="#000000" stroke="none" font-family="Arial" font-size="13px" font-style="normal" font-weight="normal" text-decoration="none" x="908.5" y="264">«artifact»</text></g></g><g transform="translate(-6,-182) scale(1,1)"><g><path fill="none" stroke="none"/><text fill="#000000" stroke="none" font-family="Arial" font-size="13px" font-style="normal" font-weight="bold" text-decoration="none" x="935.236328125" y="274"></text><path fill="none" stroke="#000000" d="M 935.236328125 280.5 L 935.236328125 280.5" stroke-miterlimit="10"/></g></g><g transform="translate(-6,-182) scale(1,1)"><g><path fill="none" stroke="none"/><text fill="#000000" stroke="none" font-family="Arial" font-size="13px" font-style="normal" font-weight="normal" text-decoration="none" x="920.785888671875" y="294">torch</text></g></g><g transform="translate(-6,-182) scale(1,1)"><rect fill="#C0C0C0" stroke="none" x="631" y="359" width="87.7744140625" height="52" opacity="0.2"/></g><g transform="translate(-6,-182) scale(1,1)"><rect fill="#ffd6ad" stroke="none" x="624" y="352" width="87.7744140625" height="52"/></g><g transform="translate(-6,-182) scale(1,1)"><path fill="none" stroke="#000000" d="M 624 352 L 711.7744140625 352 L 711.7744140625 404 L 624 404 L 624 352 Z Z" stroke-miterlimit="10"/></g><g transform="translate(-6,-182) scale(1,1)"><rect fill="#ffd6ad" stroke="none" x="624" y="352" width="87.7744140625" height="52"/></g><g transform="translate(-6,-182) scale(1,1)"><path fill="none" stroke="#000000" d="M 624 352 L 711.7744140625 352 L 711.7744140625 404 L 624 404 L 624 352 Z Z" stroke-miterlimit="10"/></g><g transform="translate(-6,-182) scale(1,1)"><g><path fill="none" stroke="none"/><text fill="#000000" stroke="none" font-family="Arial" font-size="13px" font-style="normal" font-weight="normal" text-decoration="none" x="641.15087890625" y="368">«artifact»</text></g></g><g transform="translate(-6,-182) scale(1,1)"><g><path fill="none" stroke="none"/><text fill="#000000" stroke="none" font-family="Arial" font-size="13px" font-style="normal" font-weight="bold" text-decoration="none" x="667.88720703125" y="378"></text><path fill="none" stroke="#000000" d="M 667.88720703125 384.5 L 667.88720703125 384.5" stroke-miterlimit="10"/></g></g><g transform="translate(-6,-182) scale(1,1)"><g><path fill="none" stroke="none"/><text fill="#000000" stroke="none" font-family="Arial" font-size="13px" font-style="normal" font-weight="normal" text-decoration="none" x="628.5" y="398">numpy 1.21.6</text></g></g><g transform="translate(-6,-182) scale(1,1)"><rect fill="#C0C0C0" stroke="none" x="871" y="359" width="101.51708984375" height="52" opacity="0.2"/></g><g transform="translate(-6,-182) scale(1,1)"><rect fill="#ffd6ad" stroke="none" x="864" y="352" width="101.51708984375" height="52"/></g><g transform="translate(-6,-182) scale(1,1)"><path fill="none" stroke="#000000" d="M 864 352 L 965.51708984375 352 L 965.51708984375 404 L 864 404 L 864 352 Z Z" stroke-miterlimit="10"/></g><g transform="translate(-6,-182) scale(1,1)"><rect fill="#ffd6ad" stroke="none" x="864" y="352" width="101.51708984375" height="52"/></g><g transform="translate(-6,-182) scale(1,1)"><path fill="none" stroke="#000000" d="M 864 352 L 965.51708984375 352 L 965.51708984375 404 L 864 404 L 864 352 Z Z" stroke-miterlimit="10"/></g><g transform="translate(-6,-182) scale(1,1)"><g><path fill="none" stroke="none"/><text fill="#000000" stroke="none" font-family="Arial" font-size="13px" font-style="normal" font-weight="normal" text-decoration="none" x="888.022216796875" y="368">«artifact»</text></g></g><g transform="translate(-6,-182) scale(1,1)"><g><path fill="none" stroke="none"/><text fill="#000000" stroke="none" font-family="Arial" font-size="13px" font-style="normal" font-weight="bold" text-decoration="none" x="914.758544921875" y="378"></text><path fill="none" stroke="#000000" d="M 914.758544921875 384.5 L 914.758544921875 384.5" stroke-miterlimit="10"/></g></g><g transform="translate(-6,-182) scale(1,1)"><g><path fill="none" stroke="none"/><text fill="#000000" stroke="none" font-family="Arial" font-size="13px" font-style="normal" font-weight="normal" text-decoration="none" x="868.5" y="398">opencv 4.7.0.72</text></g></g><g transform="translate(-6,-182) scale(1,1)"><path fill="none" stroke="#000000" d="M 401 316 L 607 316" stroke-miterlimit="10"/></g><g transform="translate(-6,-182) scale(1,1)"><g><path fill="none" stroke="none"/><text fill="#000000" stroke="none" font-family="Arial" font-size="13px" font-style="normal" font-weight="normal" text-decoration="none" x="453" y="311">Conexión HTTP</text></g></g><g transform="translate(-6,-182) scale(1,1)"><g><path fill="none" stroke="none"/><text fill="#000000" stroke="none" font-family="Arial" font-size="13px" font-style="normal" font-weight="normal" text-decoration="none" x="573" y="335">8000</text></g></g><g transform="translate(-6,-182) scale(1,1)"><g><path fill="none" stroke="none"/><text fill="#000000" stroke="none" font-family="Arial" font-size="13px" font-style="normal" font-weight="normal" text-decoration="none" x="405" y="335">8000</text></g></g><g transform="translate(-6,-182) scale(1,1)"><rect fill="#C0C0C0" stroke="none" x="639" y="255" width="106.55712890625" height="56" opacity="0.2"/></g><g transform="translate(-6,-182) scale(1,1)"><rect fill="#ffd6ad" stroke="none" x="632" y="248" width="106.55712890625" height="56"/></g><g transform="translate(-6,-182) scale(1,1)"><path fill="none" stroke="#000000" d="M 632 248 L 738.55712890625 248 L 738.55712890625 304 L 632 304 L 632 248 Z Z" stroke-miterlimit="10"/></g><g transform="translate(-6,-182) scale(1,1)"><rect fill="#ffd6ad" stroke="none" x="632" y="248" width="106.55712890625" height="56"/></g><g transform="translate(-6,-182) scale(1,1)"><path fill="none" stroke="#000000" d="M 632 248 L 738.55712890625 248 L 738.55712890625 304 L 632 304 L 632 248 Z Z" stroke-miterlimit="10"/></g><g transform="translate(-6,-182) scale(1,1)"><g><path fill="none" stroke="none"/><text fill="#000000" stroke="none" font-family="Arial" font-size="13px" font-style="normal" font-weight="normal" text-decoration="none" x="658.542236328125" y="264">«artifact»</text></g></g><g transform="translate(-6,-182) scale(1,1)"><g><path fill="none" stroke="none"/><text fill="#000000" stroke="none" font-family="Arial" font-size="13px" font-style="normal" font-weight="bold" text-decoration="none" x="685.278564453125" y="274"></text><path fill="none" stroke="#000000" d="M 685.278564453125 280.5 L 685.278564453125 280.5" stroke-miterlimit="10"/></g></g><g transform="translate(-6,-182) scale(1,1)"><g><path fill="none" stroke="none"/><text fill="#000000" stroke="none" font-family="Arial" font-size="13px" font-style="normal" font-weight="normal" text-decoration="none" x="636.5" y="294">CellCountApp.py</text></g></g><g transform="translate(-6,-182) scale(1,1)"><path fill="none" stroke="#000000" d="M 740 275 L 791 275" stroke-miterlimit="10" stroke-dasharray="3"/></g><g transform="translate(-6,-182) scale(1,1)"><path fill="none" stroke="#000000" d="M 780.8373251423759 279.209517756016 L 791 275 L 780.8373251423758 270.790482243984" stroke-miterlimit="10"/></g><g transform="translate(-6,-182) scale(1,1)"><path fill="none" stroke="#000000" d="M 880 274 L 903 274" stroke-miterlimit="10" stroke-dasharray="3"/></g><g transform="translate(-6,-182) scale(1,1)"><path fill="none" stroke="#000000" d="M 892.8373251423759 278.209517756016 L 903 274 L 892.8373251423758 269.790482243984" stroke-miterlimit="10"/></g><g transform="translate(-6,-182) scale(1,1)"><path fill="none" stroke="#000000" d="M 823 301 L 800 351" stroke-miterlimit="10" stroke-dasharray="3"/></g><g transform="translate(-6,-182) scale(1,1)"><path fill="none" stroke="#000000" d="M 800.4227321259194 340.00812583998 L 800 351 L 808.0713455093625 343.52648799636376" stroke-miterlimit="10"/></g><g transform="translate(-6,-182) scale(1,1)"><path fill="none" stroke="#000000" d="M 856 301 L 893 351" stroke-miterlimit="10" stroke-dasharray="3"/></g><g transform="translate(-6,-182) scale(1,1)"><path fill="none" stroke="#000000" d="M 883.5710171969581 345.3348183347803 L 893 351 L 890.3385906924083 340.3268139481472" stroke-miterlimit="10"/></g><g transform="translate(-6,-182) scale(1,1)"><path fill="none" stroke="#000000" d="M 791 301 L 711 351" stroke-miterlimit="10" stroke-dasharray="3"/></g><g transform="translate(-6,-182) scale(1,1)"><path fill="none" stroke="#000000" d="M 717.3868910948074 342.04412918008137 L 711 351 L 721.8489709920335 349.1834570156431" stroke-miterlimit="10"/></g><g transform="translate(-6,-182) scale(1,1)"><path fill="#C0C0C0" stroke="none" d="M 111 297 L 284 297 L 284 366 L 111 366" opacity="0.2"/></g><g transform="translate(-6,-182) scale(1,1)"><path fill="#C0C0C0" stroke="none" d="M 111 297 L 121 287 L 294 287 L 284 297" opacity="0.2"/></g><g transform="translate(-6,-182) scale(1,1)"><path fill="#C0C0C0" stroke="none" d="M 294 287 L 284 297 L 284 366 L 294 356" opacity="0.2"/></g><g transform="translate(-6,-182) scale(1,1)"><path fill="#ffffff" stroke="none" d="M 104 290 L 277 290 L 277 359 L 104 359"/></g><g transform="translate(-6,-182) scale(1,1)"><path fill="#ffffff" stroke="none" d="M 104 290 L 114 280 L 287 280 L 277 290"/></g><g transform="translate(-6,-182) scale(1,1)"><path fill="#ffffff" stroke="none" d="M 287 280 L 277 290 L 277 359 L 287 349"/></g><g transform="translate(-6,-182) scale(1,1)"><path fill="none" stroke="#000000" d="M 104 290 L 277 290 L 277 359 L 104 359 L 104 290" stroke-miterlimit="10"/></g><g transform="translate(-6,-182) scale(1,1)"><path fill="none" stroke="#000000" d="M 104 290 L 114 280 L 287 280 L 277 290 L 104 290" stroke-miterlimit="10"/></g><g transform="translate(-6,-182) scale(1,1)"><path fill="none" stroke="#000000" d="M 287 280 L 277 290 L 277 359 L 287 349 L 287 280" stroke-miterlimit="10"/></g><g transform="translate(-6,-182) scale(1,1)"><g><path fill="none" stroke="none"/><text fill="#000000" stroke="none" font-family="Arial" font-size="13px" font-style="normal" font-weight="bold" text-decoration="none" x="165.358642578125" y="308">Consola</text></g></g></g></svg>