<svg version="1.1" xmlns="http://www.w3.org/2000/svg" xmlns:xlink="http://www.w3.org/1999/xlink" width="988" height="268"><defs/><g><text fill="#eeeeee" stroke="none" font-family="Arial" font-size="24px" font-style="normal" font-weight="normal" text-decoration="none" x="0" y="0"> </text><text fill="#eeeeee" stroke="none" font-family="Arial" font-size="24px" font-style="normal" font-weight="normal" text-decoration="none" x="0" y="30"> </text><text fill="#eeeeee" stroke="none" font-family="Arial" font-size="24px" font-style="normal" font-weight="normal" text-decoration="none" x="0" y="60"> </text><text fill="#eeeeee" stroke="none" font-family="Arial" font-size="24px" font-style="normal" font-weight="normal" text-decoration="none" x="0" y="90"> </text><text fill="#eeeeee" stroke="none" font-family="Arial" font-size="24px" font-style="normal" font-weight="normal" text-decoration="none" x="0" y="120"> </text><text fill="#eeeeee" stroke="none" font-family="Arial" font-size="24px" font-style="normal" font-weight="normal" text-decoration="none" x="0" y="150"> </text><text fill="#eeeeee" stroke="none" font-family="Arial" font-size="24px" font-style="normal" font-weight="normal" text-decoration="none" x="0" y="180"> </text><text fill="#eeeeee" stroke="none" font-family="Arial" font-size="24px" font-style="normal" font-weight="normal" text-decoration="none" x="0" y="210"> </text><text fill="#eeeeee" stroke="none" font-family="Arial" font-size="24px" font-style="normal" font-weight="normal" text-decoration="none" x="0" y="240"> </text><text fill="#eeeeee" stroke="none" font-family="Arial" font-size="24px" font-style="normal" font-weight="normal" text-decoration="none" x="200" y="0"> </text><text fill="#eeeeee" stroke="none" font-family="Arial" font-size="24px" font-style="normal" font-weight="normal" text-decoration="none" x="200" y="30"> </text><text fill="#eeeeee" stroke="none" font-family="Arial" font-size="24px" font-style="normal" font-weight="normal" text-decoration="none" x="200" y="60"> </text><text fill="#eeeeee" stroke="none" font-family="Arial" font-size="24px" font-style="normal" font-weight="normal" text-decoration="none" x="200" y="90"> </text><text fill="#eeeeee" stroke="none" font-family="Arial" font-size="24px" font-style="normal" font-weight="normal" text-decoration="none" x="200" y="120"> </text><text fill="#eeeeee" stroke="none" font-family="Arial" font-size="24px" font-style="normal" font-weight="normal" text-decoration="none" x="200" y="150"> </text><text fill="#eeeeee" stroke="none" font-family="Arial" font-size="24px" font-style="normal" font-weight="normal" text-decoration="none" x="200" y="180"> </text><text fill="#eeeeee" stroke="none" font-family="Arial" font-size="24px" font-style="normal" font-weight="normal" text-decoration="none" x="200" y="210"> </text><text fill="#eeeeee" stroke="none" font-family="Arial" font-size="24px" font-style="normal" font-weight="normal" text-decoration="none" x="200" y="240"> </text><text fill="#eeeeee" stroke="none" font-family="Arial" font-size="24px" font-style="normal" font-weight="normal" text-decoration="none" x="400" y="0"> </text><text fill="#eeeeee" stroke="none" font-family="Arial" font-size="24px" font-style="normal" font-weight="normal" text-decoration="none" x="400" y="30"> </text><text fill="#eeeeee" stroke="none" font-family="Arial" font-size="24px" font-style="normal" font-weight="normal" text-decoration="none" x="400" y="60"> </text><text fill="#eeeeee" stroke="none" font-family="Arial" font-size="24px" font-style="normal" font-weight="normal" text-decoration="none" x="400" y="90"> </text><text fill="#eeeeee" stroke="none" font-family="Arial" font-size="24px" font-style="normal" font-weight="normal" text-decoration="none" x="400" y="120"> </text><text fill="#eeeeee" stroke="none" font-family="Arial" font-size="24px" font-style="normal" font-weight="normal" text-decoration="none" x="400" y="150"> </text><text fill="#eeeeee" stroke="none" font-family="Arial" font-size="24px" font-style="normal" font-weight="normal" text-decoration="none" x="400" y="180"> </text><text fill="#eeeeee" stroke="none" font-family="Arial" font-size="24px" font-style="normal" font-weight="normal" text-decoration="none" x="400" y="210"> </text><text fill="#eeeeee" stroke="none" font-family="Arial" font-size="24px" font-style="normal" font-weight="normal" text-decoration="none" x="400" y="240"> </text><text fill="#eeeeee" stroke="none" font-family="Arial" font-size="24px" font-style="normal" font-weight="normal" text-decoration="none" x="600" y="0"> </text><text fill="#eeeeee" stroke="none" font-family="Arial" font-size="24px" font-style="normal" font-weight="normal" text-decoration="none" x="600" y="30"> </text><text fill="#eeeeee" stroke="none" font-family="Arial" font-size="24px" font-style="normal" font-weight="normal" text-decoration="none" x="600" y="60"> </text><text fill="#eeeeee" stroke="none" font-family="Arial" font-size="24px" font-style="normal" font-weight="normal" text-decoration="none" x="600" y="90"> </text><text fill="#eeeeee" stroke="none" font-family="Arial" font-size="24px" font-style="normal" font-weight="normal" text-decoration="none" x="600" y="120"> </text><text fill="#eeeeee" stroke="none" font-family="Arial" font-size="24px" font-style="normal" font-weight="normal" text-decoration="none" x="600" y="150"> </text><text fill="#eeeeee" stroke="none" font-family="Arial" font-size="24px" font-style="normal" font-weight="normal" text-decoration="none" x="600" y="180"> </text><text fill="#eeeeee" stroke="none" font-family="Arial" font-size="24px" font-style="normal" font-weight="normal" text-decoration="none" x="600" y="210"> </text><text fill="#eeeeee" stroke="none" font-family="Arial" font-size="24px" font-style="normal" font-weight="normal" text-decoration="none" x="600" y="240"> </text><text fill="#eeeeee" stroke="none" font-family="Arial" font-size="24px" font-style="normal" font-weight="normal" text-decoration="none" x="800" y="0"> </text><text fill="#eeeeee" stroke="none" font-family="Arial" font-size="24px" font-style="normal" font-weight="normal" text-decoration="none" x="800" y="30"> </text><text fill="#eeeeee" stroke="none" font-family="Arial" font-size="24px" font-style="normal" font-weight="normal" text-decoration="none" x="800" y="60"> </text><text fill="#eeeeee" stroke="none" font-family="Arial" font-size="24px" font-style="normal" font-weight="normal" text-decoration="none" x="800" y="90"> </text><text fill="#eeeeee" stroke="none" font-family="Arial" font-size="24px" font-style="normal" font-weight="normal" text-decoration="none" x="800" y="120"> </text><text fill="#eeeeee" stroke="none" font-family="Arial" font-size="24px" font-style="normal" font-weight="normal" text-decoration="none" x="800" y="150"> </text><text fill="#eeeeee" stroke="none" font-family="Arial" font-size="24px" font-style="normal" font-weight="normal" text-decoration="none" x="800" y="180"> </text><text fill="#eeeeee" stroke="none" font-family="Arial" font-size="24px" font-style="normal" font-weight="normal" text-decoration="none" x="800" y="210"> </text><text fill="#eeeeee" stroke="none" font-family="Arial" font-size="24px" font-style="normal" font-weight="normal" text-decoration="none" x="800" y="240"> </text><g transform="translate(-6,-182) scale(1,1)"><path fill="#adc8ff" stroke="none" d="M 16 202 L 389 202 L 389 439 L 16 439"/></g><g transform="translate(-6,-182) scale(1,1)"><path fill="#adc8ff" stroke="none" d="M 16 202 L 26 192 L 399 192 L 389 202"/></g><g transform="translate(-6,-182) scale(1,1)"><path fill="#adc8ff" stroke="none" d="M 399 192 L 389 202 L 389 439 L 399 429"/></g><g transform="translate(-6,-182) scale(1,1)"><path fill="none" stroke="#000000" d="M 16 202 L 389 202 L 389 439 L 16 439 L 16 202" stroke-miterlimit="10"/></g><g transform="translate(-6,-182) scale(1,1)"><path fill="none" stroke="#000000" d="M 16 202 L 26 192 L 399 192 L 389 202 L 16 202" stroke-miterlimit="10"/></g><g transform="translate(-6,-182) scale(1,1)"><path fill="none" stroke="#000000" d="M 399 192 L 389 202 L 389 439 L 399 429 L 399 192" stroke-miterlimit="10"/></g><g transform="translate(-6,-182) scale(1,1)"><g><path fill="none" stroke="none"/><text fill="#000000" stroke="none" font-family="Arial" font-size="13px" font-style="normal" font-weight="bold" text-decoration="none" x="151.71728515625" y="220">Consola: Cliente</text></g></g><g transform="translate(-6,-182) scale(1,1)"><path fill="#C0C0C0" stroke="none" d="M 615 209 L 980 209 L 980 446 L 615 446" opacity="0.2"/></g><g transform="translate(-6,-182) scale(1,1)"><path fill="#C0C0C0" stroke="none" d="M 615 209 L 625 199 L 990 199 L 980 209" opacity="0.2"/></g><g transform="translate(-6,-182) scale(1,1)"><path fill="#C0C0C0" stroke="none" d="M 990 199 L 980 209 L 980 446 L 990 436" opacity="0.2"/></g><g transform="translate(-6,-182) scale(1,1)"><path fill="#adc8ff" stroke="none" d="M 608 202 L 973 202 L 973 439 L 608 439"/></g><g transform="translate(-6,-182) scale(1,1)"><path fill="#adc8ff" stroke="none" d="M 608 202 L 618 192 L 983 192 L 973 202"/></g><g transform="translate(-6,-182) scale(1,1)"><path fill="#adc8ff" stroke="none" d="M 983 192 L 973 202 L 973 439 L 983 429"/></g><g transform="translate(-6,-182) scale(1,1)"><path fill="none" stroke="#000000" d="M 608 202 L 973 202 L 973 439 L 608 439 L 608 202" stroke-miterlimit="10"/></g><g transform="translate(-6,-182) scale(1,1)"><path fill="none" stroke="#000000" d="M 608 202 L 618 192 L 983 192 L 973 202 L 608 202" stroke-miterlimit="10"/></g><g transform="translate(-6,-182) scale(1,1)"><path fill="none" stroke="#000000" d="M 983 192 L 973 202 L 973 439 L 983 429 L 983 192" stroke-miterlimit="10"/></g><g transform="translate(-6,-182) scale(1,1)"><g><path fill="none" stroke="none"/><text fill="#000000" stroke="none" font-family="Arial" font-size="13px" font-style="normal" font-weight="bold" text-decoration="none" x="683.36279296875" y="220">Servidor local (contenedor docker)</text></g></g><g transform="translate(-6,-182) scale(1,1)"><rect fill="#C0C0C0" stroke="none" x="151" y="247" width="106.55712890625" height="56" opacity="0.2"/></g><g transform="translate(-6,-182) scale(1,1)"><rect fill="#ffd6ad" stroke="none" x="144" y="240" width="106.55712890625" height="56"/></g><g transform="translate(-6,-182) scale(1,1)"><path fill="none" stroke="#000000" d="M 144 240 L 250.55712890625 240 L 250.55712890625 296 L 144 296 L 144 240 Z Z" stroke-miterlimit="10"/></g><g transform="translate(-6,-182) scale(1,1)"><rect fill="#ffd6ad" stroke="none" x="144" y="240" width="106.55712890625" height="56"/></g><g transform="translate(-6,-182) scale(1,1)"><path fill="none" stroke="#000000" d="M 144 240 L 250.55712890625 240 L 250.55712890625 296 L 144 296 L 144 240 Z Z" stroke-miterlimit="10"/></g><g transform="translate(-6,-182) scale(1,1)"><g><path fill="none" stroke="none"/><text fill="#000000" stroke="none" font-family="Arial" font-size="13px" font-style="normal" font-weight="normal" text-decoration="none" x="170.542236328125" y="256">«artifact»</text></g></g><g transform="translate(-6,-182) scale(1,1)"><g><path fill="none" stroke="none"/><text fill="#000000" stroke="none" font-family="Arial" font-size="13px" font-style="normal" font-weight="bold" text-decoration="none" x="197.278564453125" y="266"></text><path fill="none" stroke="#000000" d="M 197.278564453125 272.5 L 197.278564453125 272.5" stroke-miterlimit="10"/></g></g><g transform="translate(-6,-182) scale(1,1)"><g><path fill="none" stroke="none"/><text fill="#000000" stroke="none" font-family="Arial" font-size="13px" font-style="normal" font-weight="normal" text-decoration="none" x="148.5" y="286">CellCountApp.py</text></g></g><g transform="translate(-6,-182) scale(1,1)"><rect fill="#C0C0C0" stroke="none" x="143" y="351" width="62.47265625" height="52" opacity="0.2"/></g><g transform="translate(-6,-182) scale(1,1)"><rect fill="#ffd6ad" stroke="none" x="136" y="344" width="62.47265625" height="52"/></g><g transform="translate(-6,-182) scale(1,1)"><path fill="none" stroke="#000000" d="M 136 344 L 198.47265625 344 L 198.47265625 396 L 136 396 L 136 344 Z Z" stroke-miterlimit="10"/></g><g transform="translate(-6,-182) scale(1,1)"><rect fill="#ffd6ad" stroke="none" x="136" y="344" width="62.47265625" height="52"/></g><g transform="translate(-6,-182) scale(1,1)"><path fill="none" stroke="#000000" d="M 136 344 L 198.47265625 344 L 198.47265625 396 L 136 396 L 136 344 Z Z" stroke-miterlimit="10"/></g><g transform="translate(-6,-182) scale(1,1)"><g><path fill="none" stroke="none"/><text fill="#000000" stroke="none" font-family="Arial" font-size="13px" font-style="normal" font-weight="normal" text-decoration="none" x="140.5" y="360">«artifact»</text></g></g><g transform="translate(-6,-182) scale(1,1)"><g><path fill="none" stroke="none"/><text fill="#000000" stroke="none" font-family="Arial" font-size="13px" font-style="normal" font-weight="bold" text-decoration="none" x="167.236328125" y="370"></text><path fill="none" stroke="#000000" d="M 167.236328125 376.5 L 167.236328125 376.5" stroke-miterlimit="10"/></g></g><g transform="translate(-6,-182) scale(1,1)"><g><path fill="none" stroke="none"/><text fill="#000000" stroke="none" font-family="Arial" font-size="13px" font-style="normal" font-weight="normal" text-decoration="none" x="147.371337890625" y="390">Tkinter</text></g></g><g transform="translate(-6,-182) scale(1,1)"><rect fill="#C0C0C0" stroke="none" x="303" y="351" width="87.7744140625" height="52" opacity="0.2"/></g><g transform="translate(-6,-182) scale(1,1)"><rect fill="#ffd6ad" stroke="none" x="296" y="344" width="87.7744140625" height="52"/></g><g transform="translate(-6,-182) scale(1,1)"><path fill="none" stroke="#000000" d="M 296 344 L 383.7744140625 344 L 383.7744140625 396 L 296 396 L 296 344 Z Z" stroke-miterlimit="10"/></g><g transform="translate(-6,-182) scale(1,1)"><rect fill="#ffd6ad" stroke="none" x="296" y="344" width="87.7744140625" height="52"/></g><g transform="translate(-6,-182) scale(1,1)"><path fill="none" stroke="#000000" d="M 296 344 L 383.7744140625 344 L 383.7744140625 396 L 296 396 L 296 344 Z Z" stroke-miterlimit="10"/></g><g transform="translate(-6,-182) scale(1,1)"><g><path fill="none" stroke="none"/><text fill="#000000" stroke="none" font-family="Arial" font-size="13px" font-style="normal" font-weight="normal" text-decoration="none" x="313.15087890625" y="360">«artifact»</text></g></g><g transform="translate(-6,-182) scale(1,1)"><g><path fill="none" stroke="none"/><text fill="#000000" stroke="none" font-family="Arial" font-size="13px" font-style="normal" font-weight="bold" text-decoration="none" x="339.88720703125" y="370"></text><path fill="none" stroke="#000000" d="M 339.88720703125 376.5 L 339.88720703125 376.5" stroke-miterlimit="10"/></g></g><g transform="translate(-6,-182) scale(1,1)"><g><path fill="none" stroke="none"/><text fill="#000000" stroke="none" font-family="Arial" font-size="13px" font-style="normal" font-weight="normal" text-decoration="none" x="300.5" y="390">numpy 1.21.6</text></g></g><g transform="translate(-6,-182) scale(1,1)"><rect fill="#C0C0C0" stroke="none" x="215" y="351" width="75.47900390625" height="52" opacity="0.2"/></g><g transform="translate(-6,-182) scale(1,1)"><rect fill="#ffd6ad" stroke="none" x="208" y="344" width="75.47900390625" height="52"/></g><g transform="translate(-6,-182) scale(1,1)"><path fill="none" stroke="#000000" d="M 208 344 L 283.47900390625 344 L 283.47900390625 396 L 208 396 L 208 344 Z Z" stroke-miterlimit="10"/></g><g transform="translate(-6,-182) scale(1,1)"><rect fill="#ffd6ad" stroke="none" x="208" y="344" width="75.47900390625" height="52"/></g><g transform="translate(-6,-182) scale(1,1)"><path fill="none" stroke="#000000" d="M 208 344 L 283.47900390625 344 L 283.47900390625 396 L 208 396 L 208 344 Z Z" stroke-miterlimit="10"/></g><g transform="translate(-6,-182) scale(1,1)"><g><path fill="none" stroke="none"/><text fill="#000000" stroke="none" font-family="Arial" font-size="13px" font-style="normal" font-weight="normal" text-decoration="none" x="219.003173828125" y="360">«artifact»</text></g></g><g transform="translate(-6,-182) scale(1,1)"><g><path fill="none" stroke="none"/><text fill="#000000" stroke="none" font-family="Arial" font-size="13px" font-style="normal" font-weight="bold" text-decoration="none" x="245.739501953125" y="370"></text><path fill="none" stroke="#000000" d="M 245.739501953125 376.5 L 245.739501953125 376.5" stroke-miterlimit="10"/></g></g><g transform="translate(-6,-182) scale(1,1)"><g><path fill="none" stroke="none"/><text fill="#000000" stroke="none" font-family="Arial" font-size="13px" font-style="normal" font-weight="normal" text-decoration="none" x="212.5" y="390">Pillow 9.4.0</text></g></g><g transform="translate(-6,-182) scale(1,1)"><rect fill="#C0C0C0" stroke="none" x="31" y="351" width="101.51708984375" height="52" opacity="0.2"/></g><g transform="translate(-6,-182) scale(1,1)"><rect fill="#ffd6ad" stroke="none" x="24" y="344" width="101.51708984375" height="52"/></g><g transform="translate(-6,-182) scale(1,1)"><path fill="none" stroke="#000000" d="M 24 344 L 125.51708984375 344 L 125.51708984375 396 L 24 396 L 24 344 Z Z" stroke-miterlimit="10"/></g><g transform="translate(-6,-182) scale(1,1)"><rect fill="#ffd6ad" stroke="none" x="24" y="344" width="101.51708984375" height="52"/></g><g transform="translate(-6,-182) scale(1,1)"><path fill="none" stroke="#000000" d="M 24 344 L 125.51708984375 344 L 125.51708984375 396 L 24 396 L 24 344 Z Z" stroke-miterlimit="10"/></g><g transform="translate(-6,-182) scale(1,1)"><g><path fill="none" stroke="none"/><text fill="#000000" stroke="none" font-family="Arial" font-size="13px" font-style="normal" font-weight="normal" text-decoration="none" x="48.022216796875" y="360">«artifact»</text></g></g><g transform="translate(-6,-182) scale(1,1)"><g><path fill="none" stroke="none"/><text fill="#000000" stroke="none" font-family="Arial" font-size="13px" font-style="normal" font-weight="bold" text-decoration="none" x="74.758544921875" y="370"></text><path fill="none" stroke="#000000" d="M 74.758544921875 376.5 L 74.758544921875 376.5" stroke-miterlimit="10"/></g></g><g transform="translate(-6,-182) scale(1,1)"><g><path fill="none" stroke="none"/><text fill="#000000" stroke="none" font-family="Arial" font-size="13px" font-style="normal" font-weight="normal" text-decoration="none" x="28.5" y="390">opencv 4.7.0.72</text></g></g><g transform="translate(-6,-182) scale(1,1)"><path fill="none" stroke="#000000" d="M 162 297 L 107 343" stroke-miterlimit="10" stroke-dasharray="3"/></g><g transform="translate(-6,-182) scale(1,1)"><path fill="none" stroke="#000000" d="M 188 297 L 175 343" stroke-miterlimit="10" stroke-dasharray="3"/></g><g transform="translate(-6,-182) scale(1,1)"><path fill="none" stroke="#000000" d="M 211 297 L 232 343" stroke-miterlimit="10" stroke-dasharray="3"/></g><g transform="translate(-6,-182) scale(1,1)"><path fill="none" stroke="#000000" d="M 237 297 L 301 343" stroke-miterlimit="10" stroke-dasharray="3"/></g><g transform="translate(-6,-182) scale(1,1)"><rect fill="#C0C0C0" stroke="none" x="719" y="263" width="87" height="52" opacity="0.2"/></g><g transform="translate(-6,-182) scale(1,1)"><rect fill="#ffd6ad" stroke="none" x="712" y="256" width="87" height="52"/></g><g transform="translate(-6,-182) scale(1,1)"><path fill="none" stroke="#000000" d="M 712 256 L 799 256 L 799 308 L 712 308 L 712 256 Z Z" stroke-miterlimit="10"/></g><g transform="translate(-6,-182) scale(1,1)"><rect fill="#ffd6ad" stroke="none" x="712" y="256" width="87" height="52"/></g><g transform="translate(-6,-182) scale(1,1)"><path fill="none" stroke="#000000" d="M 712 256 L 799 256 L 799 308 L 712 308 L 712 256 Z Z" stroke-miterlimit="10"/></g><g transform="translate(-6,-182) scale(1,1)"><g><path fill="none" stroke="none"/><text fill="#000000" stroke="none" font-family="Arial" font-size="13px" font-style="normal" font-weight="normal" text-decoration="none" x="728.763671875" y="272">«artifact»</text></g></g><g transform="translate(-6,-182) scale(1,1)"><g><path fill="none" stroke="none"/><text fill="#000000" stroke="none" font-family="Arial" font-size="13px" font-style="normal" font-weight="bold" text-decoration="none" x="755.5" y="282"></text><path fill="none" stroke="#000000" d="M 755.5 288.5 L 755.5 288.5" stroke-miterlimit="10"/></g></g><g transform="translate(-6,-182) scale(1,1)"><g><path fill="none" stroke="none"/><text fill="#000000" stroke="none" font-family="Arial" font-size="13px" font-style="normal" font-weight="normal" text-decoration="none" x="717.92822265625" y="302">imageCell.py</text></g></g><g transform="translate(-6,-182) scale(1,1)"><rect fill="#C0C0C0" stroke="none" x="727" y="359" width="120.29345703125" height="52" opacity="0.2"/></g><g transform="translate(-6,-182) scale(1,1)"><rect fill="#ffd6ad" stroke="none" x="720" y="352" width="120.29345703125" height="52"/></g><g transform="translate(-6,-182) scale(1,1)"><path fill="none" stroke="#000000" d="M 720 352 L 840.29345703125 352 L 840.29345703125 404 L 720 404 L 720 352 Z Z" stroke-miterlimit="10"/></g><g transform="translate(-6,-182) scale(1,1)"><rect fill="#ffd6ad" stroke="none" x="720" y="352" width="120.29345703125" height="52"/></g><g transform="translate(-6,-182) scale(1,1)"><path fill="none" stroke="#000000" d="M 720 352 L 840.29345703125 352 L 840.29345703125 404 L 720 404 L 720 352 Z Z" stroke-miterlimit="10"/></g><g transform="translate(-6,-182) scale(1,1)"><g><path fill="none" stroke="none"/><text fill="#000000" stroke="none" font-family="Arial" font-size="13px" font-style="normal" font-weight="normal" text-decoration="none" x="753.410400390625" y="368">«artifact»</text></g></g><g transform="translate(-6,-182) scale(1,1)"><g><path fill="none" stroke="none"/><text fill="#000000" stroke="none" font-family="Arial" font-size="13px" font-style="normal" font-weight="bold" text-decoration="none" x="780.146728515625" y="378"></text><path fill="none" stroke="#000000" d="M 780.146728515625 384.5 L 780.146728515625 384.5" stroke-miterlimit="10"/></g></g><g transform="translate(-6,-182) scale(1,1)"><g><path fill="none" stroke="none"/><text fill="#000000" stroke="none" font-family="Arial" font-size="13px" font-style="normal" font-weight="normal" text-decoration="none" x="724.5" y="398">onnxruntime 1.14.1</text></g></g><g transform="translate(-6,-182) scale(1,1)"><rect fill="#C0C0C0" stroke="none" x="871" y="263" width="62.47265625" height="52" opacity="0.2"/></g><g transform="translate(-6,-182) scale(1,1)"><rect fill="#ffd6ad" stroke="none" x="864" y="256" width="62.47265625" height="52"/></g><g transform="translate(-6,-182) scale(1,1)"><path fill="none" stroke="#000000" d="M 864 256 L 926.47265625 256 L 926.47265625 308 L 864 308 L 864 256 Z Z" stroke-miterlimit="10"/></g><g transform="translate(-6,-182) scale(1,1)"><rect fill="#ffd6ad" stroke="none" x="864" y="256" width="62.47265625" height="52"/></g><g transform="translate(-6,-182) scale(1,1)"><path fill="none" stroke="#000000" d="M 864 256 L 926.47265625 256 L 926.47265625 308 L 864 308 L 864 256 Z Z" stroke-miterlimit="10"/></g><g transform="translate(-6,-182) scale(1,1)"><g><path fill="none" stroke="none"/><text fill="#000000" stroke="none" font-family="Arial" font-size="13px" font-style="normal" font-weight="normal" text-decoration="none" x="868.5" y="272">«artifact»</text></g></g><g transform="translate(-6,-182) scale(1,1)"><g><path fill="none" stroke="none"/><text fill="#000000" stroke="none" font-family="Arial" font-size="13px" font-style="normal" font-weight="bold" text-decoration="none" x="895.236328125" y="282"></text><path fill="none" stroke="#000000" d="M 895.236328125 288.5 L 895.236328125 288.5" stroke-miterlimit="10"/></g></g><g transform="translate(-6,-182) scale(1,1)"><g><path fill="none" stroke="none"/><text fill="#000000" stroke="none" font-family="Arial" font-size="13px" font-style="normal" font-weight="normal" text-decoration="none" x="880.785888671875" y="302">torch</text></g></g><g transform="translate(-6,-182) scale(1,1)"><rect fill="#C0C0C0" stroke="none" x="623" y="359" width="87.7744140625" height="52" opacity="0.2"/></g><g transform="translate(-6,-182) scale(1,1)"><rect fill="#ffd6ad" stroke="none" x="616" y="352" width="87.7744140625" height="52"/></g><g transform="translate(-6,-182) scale(1,1)"><path fill="none" stroke="#000000" d="M 616 352 L 703.7744140625 352 L 703.7744140625 404 L 616 404 L 616 352 Z Z" stroke-miterlimit="10"/></g><g transform="translate(-6,-182) scale(1,1)"><rect fill="#ffd6ad" stroke="none" x="616" y="352" width="87.7744140625" height="52"/></g><g transform="translate(-6,-182) scale(1,1)"><path fill="none" stroke="#000000" d="M 616 352 L 703.7744140625 352 L 703.7744140625 404 L 616 404 L 616 352 Z Z" stroke-miterlimit="10"/></g><g transform="translate(-6,-182) scale(1,1)"><g><path fill="none" stroke="none"/><text fill="#000000" stroke="none" font-family="Arial" font-size="13px" font-style="normal" font-weight="normal" text-decoration="none" x="633.15087890625" y="368">«artifact»</text></g></g><g transform="translate(-6,-182) scale(1,1)"><g><path fill="none" stroke="none"/><text fill="#000000" stroke="none" font-family="Arial" font-size="13px" font-style="normal" font-weight="bold" text-decoration="none" x="659.88720703125" y="378"></text><path fill="none" stroke="#000000" d="M 659.88720703125 384.5 L 659.88720703125 384.5" stroke-miterlimit="10"/></g></g><g transform="translate(-6,-182) scale(1,1)"><g><path fill="none" stroke="none"/><text fill="#000000" stroke="none" font-family="Arial" font-size="13px" font-style="normal" font-weight="normal" text-decoration="none" x="620.5" y="398">numpy 1.21.6</text></g></g><g transform="translate(-6,-182) scale(1,1)"><rect fill="#C0C0C0" stroke="none" x="871" y="359" width="101.51708984375" height="52" opacity="0.2"/></g><g transform="translate(-6,-182) scale(1,1)"><rect fill="#ffd6ad" stroke="none" x="864" y="352" width="101.51708984375" height="52"/></g><g transform="translate(-6,-182) scale(1,1)"><path fill="none" stroke="#000000" d="M 864 352 L 965.51708984375 352 L 965.51708984375 404 L 864 404 L 864 352 Z Z" stroke-miterlimit="10"/></g><g transform="translate(-6,-182) scale(1,1)"><rect fill="#ffd6ad" stroke="none" x="864" y="352" width="101.51708984375" height="52"/></g><g transform="translate(-6,-182) scale(1,1)"><path fill="none" stroke="#000000" d="M 864 352 L 965.51708984375 352 L 965.51708984375 404 L 864 404 L 864 352 Z Z" stroke-miterlimit="10"/></g><g transform="translate(-6,-182) scale(1,1)"><g><path fill="none" stroke="none"/><text fill="#000000" stroke="none" font-family="Arial" font-size="13px" font-style="normal" font-weight="normal" text-decoration="none" x="888.022216796875" y="368">«artifact»</text></g></g><g transform="translate(-6,-182) scale(1,1)"><g><path fill="none" stroke="none"/><text fill="#000000" stroke="none" font-family="Arial" font-size="13px" font-style="normal" font-weight="bold" text-decoration="none" x="914.758544921875" y="378"></text><path fill="none" stroke="#000000" d="M 914.758544921875 384.5 L 914.758544921875 384.5" stroke-miterlimit="10"/></g></g><g transform="translate(-6,-182) scale(1,1)"><g><path fill="none" stroke="none"/><text fill="#000000" stroke="none" font-family="Arial" font-size="13px" font-style="normal" font-weight="normal" text-decoration="none" x="868.5" y="398">opencv 4.7.0.72</text></g></g><g transform="translate(-6,-182) scale(1,1)"><path fill="none" stroke="#000000" d="M 728 309 L 686 351" stroke-miterlimit="10" stroke-dasharray="3"/></g><g transform="translate(-6,-182) scale(1,1)"><path fill="none" stroke="#000000" d="M 762 309 L 773 351" stroke-miterlimit="10" stroke-dasharray="3"/></g><g transform="translate(-6,-182) scale(1,1)"><path fill="none" stroke="#000000" d="M 800 309 L 869 351" stroke-miterlimit="10" stroke-dasharray="3"/></g><g transform="translate(-6,-182) scale(1,1)"><path fill="none" stroke="#000000" d="M 800 282 L 863 282" stroke-miterlimit="10" stroke-dasharray="3"/></g><g transform="translate(-6,-182) scale(1,1)"><path fill="none" stroke="#000000" d="M 401 316 L 607 316" stroke-miterlimit="10"/></g><g transform="translate(-6,-182) scale(1,1)"><g><path fill="none" stroke="none"/><text fill="#000000" stroke="none" font-family="Arial" font-size="13px" font-style="normal" font-weight="normal" text-decoration="none" x="453" y="311">Conexión HTTP</text></g></g><g transform="translate(-6,-182) scale(1,1)"><g><path fill="none" stroke="none"/><text fill="#000000" stroke="none" font-family="Arial" font-size="13px" font-style="normal" font-weight="normal" text-decoration="none" x="573" y="335">8000</text></g></g><g transform="translate(-6,-182) scale(1,1)"><g><path fill="none" stroke="none"/><text fill="#000000" stroke="none" font-family="Arial" font-size="13px" font-style="normal" font-weight="normal" text-decoration="none" x="405" y="335">8000</text></g></g></g></svg>