<svg version="1.1" xmlns="http://www.w3.org/2000/svg" xmlns:xlink="http://www.w3.org/1999/xlink" width="772" height="812"><defs/><g><text fill="#eeeeee" stroke="none" font-family="Arial" font-size="24px" font-style="normal" font-weight="normal" text-decoration="none" x="0" y="0"> </text><text fill="#eeeeee" stroke="none" font-family="Arial" font-size="24px" font-style="normal" font-weight="normal" text-decoration="none" x="0" y="30"> </text><text fill="#eeeeee" stroke="none" font-family="Arial" font-size="24px" font-style="normal" font-weight="normal" text-decoration="none" x="0" y="60"> </text><text fill="#eeeeee" stroke="none" font-family="Arial" font-size="24px" font-style="normal" font-weight="normal" text-decoration="none" x="0" y="90"> </text><text fill="#eeeeee" stroke="none" font-family="Arial" font-size="24px" font-style="normal" font-weight="normal" text-decoration="none" x="0" y="120"> </text><text fill="#eeeeee" stroke="none" font-family="Arial" font-size="24px" font-style="normal" font-weight="normal" text-decoration="none" x="0" y="150"> </text><text fill="#eeeeee" stroke="none" font-family="Arial" font-size="24px" font-style="normal" font-weight="normal" text-decoration="none" x="0" y="180"> </text><text fill="#eeeeee" stroke="none" font-family="Arial" font-size="24px" font-style="normal" font-weight="normal" text-decoration="none" x="0" y="210"> </text><text fill="#eeeeee" stroke="none" font-family="Arial" font-size="24px" font-style="normal" font-weight="normal" text-decoration="none" x="0" y="240"> </text><text fill="#eeeeee" stroke="none" font-family="Arial" font-size="24px" font-style="normal" font-weight="normal" text-decoration="none" x="0" y="270"> </text><text fill="#eeeeee" stroke="none" font-family="Arial" font-size="24px" font-style="normal" font-weight="normal" text-decoration="none" x="0" y="300"> </text><text fill="#eeeeee" stroke="none" font-family="Arial" font-size="24px" font-style="normal" font-weight="normal" text-decoration="none" x="0" y="330"> </text><text fill="#eeeeee" stroke="none" font-family="Arial" font-size="24px" font-style="normal" font-weight="normal" text-decoration="none" x="0" y="360"> </text><text fill="#eeeeee" stroke="none" font-family="Arial" font-size="24px" font-style="normal" font-weight="normal" text-decoration="none" x="0" y="390"> </text><text fill="#eeeeee" stroke="none" font-family="Arial" font-size="24px" font-style="normal" font-weight="normal" text-decoration="none" x="0" y="420"> </text><text fill="#eeeeee" stroke="none" font-family="Arial" font-size="24px" font-style="normal" font-weight="normal" text-decoration="none" x="0" y="450"> </text><text fill="#eeeeee" stroke="none" font-family="Arial" font-size="24px" font-style="normal" font-weight="normal" text-decoration="none" x="0" y="480"> </text><text fill="#eeeeee" stroke="none" font-family="Arial" font-size="24px" font-style="normal" font-weight="normal" text-decoration="none" x="0" y="510"> </text><text fill="#eeeeee" stroke="none" font-family="Arial" font-size="24px" font-style="normal" font-weight="normal" text-decoration="none" x="0" y="540"> </text><text fill="#eeeeee" stroke="none" font-family="Arial" font-size="24px" font-style="normal" font-weight="normal" text-decoration="none" x="0" y="570"> </text><text fill="#eeeeee" stroke="none" font-family="Arial" font-size="24px" font-style="normal" font-weight="normal" text-decoration="none" x="0" y="600"> </text><text fill="#eeeeee" stroke="none" font-family="Arial" font-size="24px" font-style="normal" font-weight="normal" text-decoration="none" x="0" y="630"> </text><text fill="#eeeeee" stroke="none" font-family="Arial" font-size="24px" font-style="normal" font-weight="normal" text-decoration="none" x="0" y="660"> </text><text fill="#eeeeee" stroke="none" font-family="Arial" font-size="24px" font-style="normal" font-weight="normal" text-decoration="none" x="0" y="690"> </text><text fill="#eeeeee" stroke="none" font-family="Arial" font-size="24px" font-style="normal" font-weight="normal" text-decoration="none" x="0" y="720"> </text><text fill="#eeeeee" stroke="none" font-family="Arial" font-size="24px" font-style="normal" font-weight="normal" text-decoration="none" x="0" y="750"> </text><text fill="#eeeeee" stroke="none" font-family="Arial" font-size="24px" font-style="normal" font-weight="normal" text-decoration="none" x="0" y="780"> </text><text fill="#eeeeee" stroke="none" font-family="Arial" font-size="24px" font-style="normal" font-weight="normal" text-decoration="none" x="0" y="810"> </text><text fill="#eeeeee" stroke="none" font-family="Arial" font-size="24px" font-style="normal" font-weight="normal" text-decoration="none" x="200" y="0"> </text><text fill="#eeeeee" stroke="none" font-family="Arial" font-size="24px" font-style="normal" font-weight="normal" text-decoration="none" x="200" y="30"> </text><text fill="#eeeeee" stroke="none" font-family="Arial" font-size="24px" font-style="normal" font-weight="normal" text-decoration="none" x="200" y="60"> </text><text fill="#eeeeee" stroke="none" font-family="Arial" font-size="24px" font-style="normal" font-weight="normal" text-decoration="none" x="200" y="90"> </text><text fill="#eeeeee" stroke="none" font-family="Arial" font-size="24px" font-style="normal" font-weight="normal" text-decoration="none" x="200" y="120"> </text><text fill="#eeeeee" stroke="none" font-family="Arial" font-size="24px" font-style="normal" font-weight="normal" text-decoration="none" x="200" y="150"> </text><text fill="#eeeeee" stroke="none" font-family="Arial" font-size="24px" font-style="normal" font-weight="normal" text-decoration="none" x="200" y="180"> </text><text fill="#eeeeee" stroke="none" font-family="Arial" font-size="24px" font-style="normal" font-weight="normal" text-decoration="none" x="200" y="210"> </text><text fill="#eeeeee" stroke="none" font-family="Arial" font-size="24px" font-style="normal" font-weight="normal" text-decoration="none" x="200" y="240"> </text><text fill="#eeeeee" stroke="none" font-family="Arial" font-size="24px" font-style="normal" font-weight="normal" text-decoration="none" x="200" y="270"> </text><text fill="#eeeeee" stroke="none" font-family="Arial" font-size="24px" font-style="normal" font-weight="normal" text-decoration="none" x="200" y="300"> </text><text fill="#eeeeee" stroke="none" font-family="Arial" font-size="24px" font-style="normal" font-weight="normal" text-decoration="none" x="200" y="330"> </text><text fill="#eeeeee" stroke="none" font-family="Arial" font-size="24px" font-style="normal" font-weight="normal" text-decoration="none" x="200" y="360"> </text><text fill="#eeeeee" stroke="none" font-family="Arial" font-size="24px" font-style="normal" font-weight="normal" text-decoration="none" x="200" y="390"> </text><text fill="#eeeeee" stroke="none" font-family="Arial" font-size="24px" font-style="normal" font-weight="normal" text-decoration="none" x="200" y="420"> </text><text fill="#eeeeee" stroke="none" font-family="Arial" font-size="24px" font-style="normal" font-weight="normal" text-decoration="none" x="200" y="450"> </text><text fill="#eeeeee" stroke="none" font-family="Arial" font-size="24px" font-style="normal" font-weight="normal" text-decoration="none" x="200" y="480"> </text><text fill="#eeeeee" stroke="none" font-family="Arial" font-size="24px" font-style="normal" font-weight="normal" text-decoration="none" x="200" y="510"> </text><text fill="#eeeeee" stroke="none" font-family="Arial" font-size="24px" font-style="normal" font-weight="normal" text-decoration="none" x="200" y="540"> </text><text fill="#eeeeee" stroke="none" font-family="Arial" font-size="24px" font-style="normal" font-weight="normal" text-decoration="none" x="200" y="570"> </text><text fill="#eeeeee" stroke="none" font-family="Arial" font-size="24px" font-style="normal" font-weight="normal" text-decoration="none" x="200" y="600"> </text><text fill="#eeeeee" stroke="none" font-family="Arial" font-size="24px" font-style="normal" font-weight="normal" text-decoration="none" x="200" y="630"> </text><text fill="#eeeeee" stroke="none" font-family="Arial" font-size="24px" font-style="normal" font-weight="normal" text-decoration="none" x="200" y="660"> </text><text fill="#eeeeee" stroke="none" font-family="Arial" font-size="24px" font-style="normal" font-weight="normal" text-decoration="none" x="200" y="690"> </text><text fill="#eeeeee" stroke="none" font-family="Arial" font-size="24px" font-style="normal" font-weight="normal" text-decoration="none" x="200" y="720"> </text><text fill="#eeeeee" stroke="none" font-family="Arial" font-size="24px" font-style="normal" font-weight="normal" text-decoration="none" x="200" y="750"> </text><text fill="#eeeeee" stroke="none" font-family="Arial" font-size="24px" font-style="normal" font-weight="normal" text-decoration="none" x="200" y="780"> </text><text fill="#eeeeee" stroke="none" font-family="Arial" font-size="24px" font-style="normal" font-weight="normal" text-decoration="none" x="200" y="810"> </text><text fill="#eeeeee" stroke="none" font-family="Arial" font-size="24px" font-style="normal" font-weight="normal" text-decoration="none" x="400" y="0"> </text><text fill="#eeeeee" stroke="none" font-family="Arial" font-size="24px" font-style="normal" font-weight="normal" text-decoration="none" x="400" y="30"> </text><text fill="#eeeeee" stroke="none" font-family="Arial" font-size="24px" font-style="normal" font-weight="normal" text-decoration="none" x="400" y="60"> </text><text fill="#eeeeee" stroke="none" font-family="Arial" font-size="24px" font-style="normal" font-weight="normal" text-decoration="none" x="400" y="90"> </text><text fill="#eeeeee" stroke="none" font-family="Arial" font-size="24px" font-style="normal" font-weight="normal" text-decoration="none" x="400" y="120"> </text><text fill="#eeeeee" stroke="none" font-family="Arial" font-size="24px" font-style="normal" font-weight="normal" text-decoration="none" x="400" y="150"> </text><text fill="#eeeeee" stroke="none" font-family="Arial" font-size="24px" font-style="normal" font-weight="normal" text-decoration="none" x="400" y="180"> </text><text fill="#eeeeee" stroke="none" font-family="Arial" font-size="24px" font-style="normal" font-weight="normal" text-decoration="none" x="400" y="210"> </text><text fill="#eeeeee" stroke="none" font-family="Arial" font-size="24px" font-style="normal" font-weight="normal" text-decoration="none" x="400" y="240"> </text><text fill="#eeeeee" stroke="none" font-family="Arial" font-size="24px" font-style="normal" font-weight="normal" text-decoration="none" x="400" y="270"> </text><text fill="#eeeeee" stroke="none" font-family="Arial" font-size="24px" font-style="normal" font-weight="normal" text-decoration="none" x="400" y="300"> </text><text fill="#eeeeee" stroke="none" font-family="Arial" font-size="24px" font-style="normal" font-weight="normal" text-decoration="none" x="400" y="330"> </text><text fill="#eeeeee" stroke="none" font-family="Arial" font-size="24px" font-style="normal" font-weight="normal" text-decoration="none" x="400" y="360"> </text><text fill="#eeeeee" stroke="none" font-family="Arial" font-size="24px" font-style="normal" font-weight="normal" text-decoration="none" x="400" y="390"> </text><text fill="#eeeeee" stroke="none" font-family="Arial" font-size="24px" font-style="normal" font-weight="normal" text-decoration="none" x="400" y="420"> </text><text fill="#eeeeee" stroke="none" font-family="Arial" font-size="24px" font-style="normal" font-weight="normal" text-decoration="none" x="400" y="450"> </text><text fill="#eeeeee" stroke="none" font-family="Arial" font-size="24px" font-style="normal" font-weight="normal" text-decoration="none" x="400" y="480"> </text><text fill="#eeeeee" stroke="none" font-family="Arial" font-size="24px" font-style="normal" font-weight="normal" text-decoration="none" x="400" y="510"> </text><text fill="#eeeeee" stroke="none" font-family="Arial" font-size="24px" font-style="normal" font-weight="normal" text-decoration="none" x="400" y="540"> </text><text fill="#eeeeee" stroke="none" font-family="Arial" font-size="24px" font-style="normal" font-weight="normal" text-decoration="none" x="400" y="570"> </text><text fill="#eeeeee" stroke="none" font-family="Arial" font-size="24px" font-style="normal" font-weight="normal" text-decoration="none" x="400" y="600"> </text><text fill="#eeeeee" stroke="none" font-family="Arial" font-size="24px" font-style="normal" font-weight="normal" text-decoration="none" x="400" y="630"> </text><text fill="#eeeeee" stroke="none" font-family="Arial" font-size="24px" font-style="normal" font-weight="normal" text-decoration="none" x="400" y="660"> </text><text fill="#eeeeee" stroke="none" font-family="Arial" font-size="24px" font-style="normal" font-weight="normal" text-decoration="none" x="400" y="690"> </text><text fill="#eeeeee" stroke="none" font-family="Arial" font-size="24px" font-style="normal" font-weight="normal" text-decoration="none" x="400" y="720"> </text><text fill="#eeeeee" stroke="none" font-family="Arial" font-size="24px" font-style="normal" font-weight="normal" text-decoration="none" x="400" y="750"> </text><text fill="#eeeeee" stroke="none" font-family="Arial" font-size="24px" font-style="normal" font-weight="normal" text-decoration="none" x="400" y="780"> </text><text fill="#eeeeee" stroke="none" font-family="Arial" font-size="24px" font-style="normal" font-weight="normal" text-decoration="none" x="400" y="810"> </text><text fill="#eeeeee" stroke="none" font-family="Arial" font-size="24px" font-style="normal" font-weight="normal" text-decoration="none" x="600" y="0"> </text><text fill="#eeeeee" stroke="none" font-family="Arial" font-size="24px" font-style="normal" font-weight="normal" text-decoration="none" x="600" y="30"> </text><text fill="#eeeeee" stroke="none" font-family="Arial" font-size="24px" font-style="normal" font-weight="normal" text-decoration="none" x="600" y="60"> </text><text fill="#eeeeee" stroke="none" font-family="Arial" font-size="24px" font-style="normal" font-weight="normal" text-decoration="none" x="600" y="90"> </text><text fill="#eeeeee" stroke="none" font-family="Arial" font-size="24px" font-style="normal" font-weight="normal" text-decoration="none" x="600" y="120"> </text><text fill="#eeeeee" stroke="none" font-family="Arial" font-size="24px" font-style="normal" font-weight="normal" text-decoration="none" x="600" y="150"> </text><text fill="#eeeeee" stroke="none" font-family="Arial" font-size="24px" font-style="normal" font-weight="normal" text-decoration="none" x="600" y="180"> </text><text fill="#eeeeee" stroke="none" font-family="Arial" font-size="24px" font-style="normal" font-weight="normal" text-decoration="none" x="600" y="210"> </text><text fill="#eeeeee" stroke="none" font-family="Arial" font-size="24px" font-style="normal" font-weight="normal" text-decoration="none" x="600" y="240"> </text><text fill="#eeeeee" stroke="none" font-family="Arial" font-size="24px" font-style="normal" font-weight="normal" text-decoration="none" x="600" y="270"> </text><text fill="#eeeeee" stroke="none" font-family="Arial" font-size="24px" font-style="normal" font-weight="normal" text-decoration="none" x="600" y="300"> </text><text fill="#eeeeee" stroke="none" font-family="Arial" font-size="24px" font-style="normal" font-weight="normal" text-decoration="none" x="600" y="330"> </text><text fill="#eeeeee" stroke="none" font-family="Arial" font-size="24px" font-style="normal" font-weight="normal" text-decoration="none" x="600" y="360"> </text><text fill="#eeeeee" stroke="none" font-family="Arial" font-size="24px" font-style="normal" font-weight="normal" text-decoration="none" x="600" y="390"> </text><text fill="#eeeeee" stroke="none" font-family="Arial" font-size="24px" font-style="normal" font-weight="normal" text-decoration="none" x="600" y="420"> </text><text fill="#eeeeee" stroke="none" font-family="Arial" font-size="24px" font-style="normal" font-weight="normal" text-decoration="none" x="600" y="450"> </text><text fill="#eeeeee" stroke="none" font-family="Arial" font-size="24px" font-style="normal" font-weight="normal" text-decoration="none" x="600" y="480"> </text><text fill="#eeeeee" stroke="none" font-family="Arial" font-size="24px" font-style="normal" font-weight="normal" text-decoration="none" x="600" y="510"> </text><text fill="#eeeeee" stroke="none" font-family="Arial" font-size="24px" font-style="normal" font-weight="normal" text-decoration="none" x="600" y="540"> </text><text fill="#eeeeee" stroke="none" font-family="Arial" font-size="24px" font-style="normal" font-weight="normal" text-decoration="none" x="600" y="570"> </text><text fill="#eeeeee" stroke="none" font-family="Arial" font-size="24px" font-style="normal" font-weight="normal" text-decoration="none" x="600" y="600"> </text><text fill="#eeeeee" stroke="none" font-family="Arial" font-size="24px" font-style="normal" font-weight="normal" text-decoration="none" x="600" y="630"> </text><text fill="#eeeeee" stroke="none" font-family="Arial" font-size="24px" font-style="normal" font-weight="normal" text-decoration="none" x="600" y="660"> </text><text fill="#eeeeee" stroke="none" font-family="Arial" font-size="24px" font-style="normal" font-weight="normal" text-decoration="none" x="600" y="690"> </text><text fill="#eeeeee" stroke="none" font-family="Arial" font-size="24px" font-style="normal" font-weight="normal" text-decoration="none" x="600" y="720"> </text><text fill="#eeeeee" stroke="none" font-family="Arial" font-size="24px" font-style="normal" font-weight="normal" text-decoration="none" x="600" y="750"> </text><text fill="#eeeeee" stroke="none" font-family="Arial" font-size="24px" font-style="normal" font-weight="normal" text-decoration="none" x="600" y="780"> </text><text fill="#eeeeee" stroke="none" font-family="Arial" font-size="24px" font-style="normal" font-weight="normal" text-decoration="none" x="600" y="810"> </text><g transform="translate(-6,10) scale(1,1)"><path fill="none" stroke="#000000" d="M 16 0 L 768 0 L 768 792 L 16 792 L 16 0" stroke-miterlimit="10"/></g><g transform="translate(-6,10) scale(1,1)"><path fill="#ffffff" stroke="none" d="M 16 0 L 16 22 L 160.63525390625 22 L 171.63525390625 11 L 171.63525390625 0 L 16 0"/></g><g transform="translate(-6,10) scale(1,1)"><path fill="none" stroke="#000000" d="M 16 0 L 16 22 L 160.63525390625 22 L 171.63525390625 11 L 171.63525390625 0 L 16 0 L 16 0" stroke-miterlimit="10"/></g><g transform="translate(-6,10) scale(1,1)"><g><path fill="none" stroke="none"/><text fill="#000000" stroke="none" font-family="Arial" font-size="13px" font-style="normal" font-weight="normal" text-decoration="none" x="40.72998046875" y="16">SequenceDiagram1</text></g></g><g transform="translate(-6,10) scale(1,1)"><g><path fill="none" stroke="none"/><text fill="#000000" stroke="none" font-family="Arial" font-size="13px" font-style="normal" font-weight="bold" text-decoration="none" x="20.279541015625" y="16">sd</text></g></g><g transform="translate(-6,10) scale(1,1)"><rect fill="#C0C0C0" stroke="none" x="111" y="47" width="166.3291015625" height="39" opacity="0.2"/></g><g transform="translate(-6,10) scale(1,1)"><rect fill="#ffffff" stroke="none" x="104" y="40" width="166.3291015625" height="39"/></g><g transform="translate(-6,10) scale(1,1)"><path fill="none" stroke="#000000" d="M 104 40 L 270.3291015625 40 L 270.3291015625 79 L 104 79 L 104 40 Z Z" stroke-miterlimit="10"/></g><g transform="translate(-6,10) scale(1,1)"><g><path fill="none" stroke="none"/><text fill="#000000" stroke="none" font-family="Arial" font-size="13px" font-style="normal" font-weight="bold" text-decoration="none" x="113.5" y="58">Lifeline1: CellCountApp</text></g></g><g transform="translate(-6,10) scale(1,1)"><path fill="none" stroke="#000000" d="M 188.5 80 L 188.5 760" stroke-miterlimit="10" stroke-dasharray="3"/></g><g transform="translate(-6,10) scale(1,1)"><rect fill="#C0C0C0" stroke="none" x="631" y="47" width="141.0908203125" height="39" opacity="0.2"/></g><g transform="translate(-6,10) scale(1,1)"><rect fill="#ffffff" stroke="none" x="624" y="40" width="141.0908203125" height="39"/></g><g transform="translate(-6,10) scale(1,1)"><path fill="none" stroke="#000000" d="M 624 40 L 765.0908203125 40 L 765.0908203125 79 L 624 79 L 624 40 Z Z" stroke-miterlimit="10"/></g><g transform="translate(-6,10) scale(1,1)"><g><path fill="none" stroke="none"/><text fill="#000000" stroke="none" font-family="Arial" font-size="13px" font-style="normal" font-weight="bold" text-decoration="none" x="633.5" y="58">Lifeline2: imageCell</text></g></g><g transform="translate(-6,10) scale(1,1)"><path fill="none" stroke="#000000" d="M 695.5 80 L 695.5 757" stroke-miterlimit="10" stroke-dasharray="3"/></g><g transform="translate(-6,10) scale(1,1)"><path fill="#000000" stroke="none" d="M 200 663 C 200 659.1340064 203.1340064 656 207 656 C 210.8659936 656 214 659.1340064 214 663 C 214 666.8659936 210.8659936 670 207 670 C 203.1340064 670 200 666.8659936 200 663 Z"/></g><g transform="translate(-6,10) scale(1,1)"><path fill="#000000" stroke="none" d="M 184 767 C 184 763.1340064 187.1340064 760 191 760 C 194.8659936 760 198 763.1340064 198 767 C 198 770.8659936 194.8659936 774 191 774 C 187.1340064 774 184 770.8659936 184 767 Z"/></g><g transform="translate(-6,10) scale(1,1)"><path fill="none" stroke="#000000" d="M 188 80 L 218 80 L 218 100 L 194 100" stroke-miterlimit="10"/></g><g transform="translate(-6,10) scale(1,1)"><path fill="#000000" stroke="none" d="M 204.16267485762415 95.79048224398402 L 194 100 L 204.16267485762415 104.20951775601598"/></g><g transform="translate(-6,10) scale(1,1)"><path fill="none" stroke="#000000" d="M 204.16267485762415 95.79048224398402 L 194 100 L 204.16267485762415 104.20951775601598 L 204.16267485762415 95.79048224398402" stroke-miterlimit="10"/></g><g transform="translate(-6,10) scale(1,1)"><g><path fill="none" stroke="none"/><text fill="#000000" stroke="none" font-family="Arial" font-size="13px" font-style="normal" font-weight="normal" text-decoration="none" x="221.5" y="99">1 : Mostrar interfaz</text></g></g><g transform="translate(-6,10) scale(1,1)"><rect fill="#ffffff" stroke="none" x="181" y="100" width="13" height="628"/></g><g transform="translate(-6,10) scale(1,1)"><path fill="none" stroke="#000000" d="M 181 100 L 194 100 L 194 728 L 181 728 L 181 100 Z Z" stroke-miterlimit="10"/></g><g transform="translate(-6,10) scale(1,1)"><path fill="none" stroke="#000000" d="M 194 112 L 224 112 L 224 132 L 201 132" stroke-miterlimit="10"/></g><g transform="translate(-6,10) scale(1,1)"><path fill="#000000" stroke="none" d="M 211.16267485762415 127.79048224398402 L 201 132 L 211.16267485762415 136.209517756016"/></g><g transform="translate(-6,10) scale(1,1)"><path fill="none" stroke="#000000" d="M 211.16267485762415 127.79048224398402 L 201 132 L 211.16267485762415 136.209517756016 L 211.16267485762415 127.79048224398402" stroke-miterlimit="10"/></g><g transform="translate(-6,10) scale(1,1)"><g><path fill="none" stroke="none"/><text fill="#000000" stroke="none" font-family="Arial" font-size="13px" font-style="normal" font-weight="normal" text-decoration="none" x="149.5" y="126">2 : selectAndProcessImage()</text></g></g><g transform="translate(-6,10) scale(1,1)"><rect fill="#ffffff" stroke="none" x="188" y="132" width="13" height="580"/></g><g transform="translate(-6,10) scale(1,1)"><path fill="none" stroke="#000000" d="M 188 132 L 201 132 L 201 712 L 188 712 L 188 132 Z Z" stroke-miterlimit="10"/></g><g transform="translate(-6,10) scale(1,1)"><path fill="none" stroke="#000000" d="M 201 152 L 688 152" stroke-miterlimit="10"/></g><g transform="translate(-6,10) scale(1,1)"><path fill="#000000" stroke="none" d="M 677.8373251423759 156.209517756016 L 688 152 L 677.8373251423758 147.790482243984"/></g><g transform="translate(-6,10) scale(1,1)"><path fill="none" stroke="#000000" d="M 677.8373251423759 156.209517756016 L 688 152 L 677.8373251423758 147.790482243984 L 677.8373251423759 156.209517756016" stroke-miterlimit="10"/></g><g transform="translate(-6,10) scale(1,1)"><g><path fill="none" stroke="none"/><text fill="#000000" stroke="none" font-family="Arial" font-size="13px" font-style="normal" font-weight="normal" text-decoration="none" x="371.5" y="147">3 : loadImage():np.darray</text></g></g><g transform="translate(-6,10) scale(1,1)"><rect fill="#ffffff" stroke="none" x="688" y="152" width="13" height="591"/></g><g transform="translate(-6,10) scale(1,1)"><path fill="none" stroke="#000000" d="M 688 152 L 701 152 L 701 743 L 688 743 L 688 152 Z Z" stroke-miterlimit="10"/></g><g transform="translate(-6,10) scale(1,1)"><path fill="none" stroke="#000000" d="M 688 168 L 201 168" stroke-miterlimit="10" stroke-dasharray="3"/></g><g transform="translate(-6,10) scale(1,1)"><path fill="none" stroke="#000000" d="M 211.16267485762415 163.790482243984 L 201 168 L 211.16267485762415 172.209517756016" stroke-miterlimit="10"/></g><g transform="translate(-6,10) scale(1,1)"><g><path fill="none" stroke="none"/><text fill="#000000" stroke="none" font-family="Arial" font-size="13px" font-style="normal" font-weight="normal" text-decoration="none" x="386.5" y="183">4 : Imagen cargada</text></g></g><g transform="translate(-6,10) scale(1,1)"><path fill="none" stroke="#000000" d="M 201 240 L 695 240" stroke-miterlimit="10"/></g><g transform="translate(-6,10) scale(1,1)"><path fill="#000000" stroke="none" d="M 684.8373251423759 244.209517756016 L 695 240 L 684.8373251423758 235.790482243984"/></g><g transform="translate(-6,10) scale(1,1)"><path fill="none" stroke="#000000" d="M 684.8373251423759 244.209517756016 L 695 240 L 684.8373251423758 235.790482243984 L 684.8373251423759 244.209517756016" stroke-miterlimit="10"/></g><g transform="translate(-6,10) scale(1,1)"><g><path fill="none" stroke="none"/><text fill="#000000" stroke="none" font-family="Arial" font-size="13px" font-style="normal" font-weight="normal" text-decoration="none" x="361.5" y="232">5 : prepareImage():np.darray</text></g></g><g transform="translate(-6,10) scale(1,1)"><rect fill="#ffffff" stroke="none" x="695" y="240" width="13" height="492"/></g><g transform="translate(-6,10) scale(1,1)"><path fill="none" stroke="#000000" d="M 695 240 L 708 240 L 708 732 L 695 732 L 695 240 Z Z" stroke-miterlimit="10"/></g><g transform="translate(-6,10) scale(1,1)"><path fill="none" stroke="#000000" d="M 695 260 L 201 260" stroke-miterlimit="10" stroke-dasharray="3"/></g><g transform="translate(-6,10) scale(1,1)"><path fill="none" stroke="#000000" d="M 211.16267485762415 255.790482243984 L 201 260 L 211.16267485762415 264.209517756016" stroke-miterlimit="10"/></g><g transform="translate(-6,10) scale(1,1)"><g><path fill="none" stroke="none"/><text fill="#000000" stroke="none" font-family="Arial" font-size="13px" font-style="normal" font-weight="normal" text-decoration="none" x="340.5" y="275">6 : Imagen preparada para inferencia</text></g></g><g transform="translate(-6,10) scale(1,1)"><path fill="none" stroke="#000000" d="M 201 296 L 702 296" stroke-miterlimit="10"/></g><g transform="translate(-6,10) scale(1,1)"><path fill="#000000" stroke="none" d="M 691.8373251423759 300.209517756016 L 702 296 L 691.8373251423758 291.790482243984"/></g><g transform="translate(-6,10) scale(1,1)"><path fill="none" stroke="#000000" d="M 691.8373251423759 300.209517756016 L 702 296 L 691.8373251423758 291.790482243984 L 691.8373251423759 300.209517756016" stroke-miterlimit="10"/></g><g transform="translate(-6,10) scale(1,1)"><g><path fill="none" stroke="none"/><text fill="#000000" stroke="none" font-family="Arial" font-size="13px" font-style="normal" font-weight="normal" text-decoration="none" x="205.5" y="291">7 : loadModel():onnxruntime.capi.onnxruntime_inference_collection.InferenceSession</text></g></g><g transform="translate(-6,10) scale(1,1)"><rect fill="#ffffff" stroke="none" x="702" y="296" width="13" height="433"/></g><g transform="translate(-6,10) scale(1,1)"><path fill="none" stroke="#000000" d="M 702 296 L 715 296 L 715 729 L 702 729 L 702 296 Z Z" stroke-miterlimit="10"/></g><g transform="translate(-6,10) scale(1,1)"><path fill="none" stroke="#000000" d="M 702 312 L 201 312" stroke-miterlimit="10" stroke-dasharray="3"/></g><g transform="translate(-6,10) scale(1,1)"><path fill="none" stroke="#000000" d="M 211.16267485762415 307.790482243984 L 201 312 L 211.16267485762415 316.209517756016" stroke-miterlimit="10"/></g><g transform="translate(-6,10) scale(1,1)"><g><path fill="none" stroke="none"/><text fill="#000000" stroke="none" font-family="Arial" font-size="13px" font-style="normal" font-weight="normal" text-decoration="none" x="354.108642578125" y="331">8 : Modelo de inferencia cargado</text></g></g><g transform="translate(-6,10) scale(1,1)"><path fill="none" stroke="#000000" d="M 201 360 L 709 360" stroke-miterlimit="10"/></g><g transform="translate(-6,10) scale(1,1)"><path fill="#000000" stroke="none" d="M 698.8373251423759 364.209517756016 L 709 360 L 698.8373251423758 355.790482243984"/></g><g transform="translate(-6,10) scale(1,1)"><path fill="none" stroke="#000000" d="M 698.8373251423759 364.209517756016 L 709 360 L 698.8373251423758 355.790482243984 L 698.8373251423759 364.209517756016" stroke-miterlimit="10"/></g><g transform="translate(-6,10) scale(1,1)"><g><path fill="none" stroke="none"/><text fill="#000000" stroke="none" font-family="Arial" font-size="13px" font-style="normal" font-weight="normal" text-decoration="none" x="324.5" y="355">9 : detectCells(conf_thresh = conf_thresh):list</text></g></g><g transform="translate(-6,10) scale(1,1)"><rect fill="#ffffff" stroke="none" x="709" y="360" width="13" height="366"/></g><g transform="translate(-6,10) scale(1,1)"><path fill="none" stroke="#000000" d="M 709 360 L 722 360 L 722 726 L 709 726 L 709 360 Z Z" stroke-miterlimit="10"/></g><g transform="translate(-6,10) scale(1,1)"><path fill="none" stroke="#000000" d="M 709 374 L 201 374" stroke-miterlimit="10" stroke-dasharray="3"/></g><g transform="translate(-6,10) scale(1,1)"><path fill="none" stroke="#000000" d="M 211.16267485762415 369.790482243984 L 201 374 L 211.16267485762415 378.209517756016" stroke-miterlimit="10"/></g><g transform="translate(-6,10) scale(1,1)"><g><path fill="none" stroke="none"/><text fill="#000000" stroke="none" font-family="Arial" font-size="13px" font-style="normal" font-weight="normal" text-decoration="none" x="361.302734375" y="389">10 : Bounding boxes detectados</text></g></g><g transform="translate(-6,10) scale(1,1)"><path fill="none" stroke="#000000" d="M 201 410 L 716 410" stroke-miterlimit="10"/></g><g transform="translate(-6,10) scale(1,1)"><path fill="#000000" stroke="none" d="M 705.8373251423759 414.209517756016 L 716 410 L 705.8373251423758 405.790482243984"/></g><g transform="translate(-6,10) scale(1,1)"><path fill="none" stroke="#000000" d="M 705.8373251423759 414.209517756016 L 716 410 L 705.8373251423758 405.790482243984 L 705.8373251423759 414.209517756016" stroke-miterlimit="10"/></g><g transform="translate(-6,10) scale(1,1)"><g><path fill="none" stroke="none"/><text fill="#000000" stroke="none" font-family="Arial" font-size="13px" font-style="normal" font-weight="normal" text-decoration="none" x="402.982421875" y="405">11 : countCells():int</text></g></g><g transform="translate(-6,10) scale(1,1)"><rect fill="#ffffff" stroke="none" x="716" y="410" width="13" height="313"/></g><g transform="translate(-6,10) scale(1,1)"><path fill="none" stroke="#000000" d="M 716 410 L 729 410 L 729 723 L 716 723 L 716 410 Z Z" stroke-miterlimit="10"/></g><g transform="translate(-6,10) scale(1,1)"><path fill="none" stroke="#000000" d="M 716 424 L 208 424" stroke-miterlimit="10"/></g><g transform="translate(-6,10) scale(1,1)"><path fill="#000000" stroke="none" d="M 218.16267485762415 419.790482243984 L 208 424 L 218.16267485762415 428.209517756016"/></g><g transform="translate(-6,10) scale(1,1)"><path fill="none" stroke="#000000" d="M 218.16267485762415 419.790482243984 L 208 424 L 218.16267485762415 428.209517756016 L 218.16267485762415 419.790482243984" stroke-miterlimit="10"/></g><g transform="translate(-6,10) scale(1,1)"><g><path fill="none" stroke="none"/><text fill="#000000" stroke="none" font-family="Arial" font-size="13px" font-style="normal" font-weight="normal" text-decoration="none" x="369.5" y="439">12 : Total de células detectadas</text></g></g><g transform="translate(-6,10) scale(1,1)"><rect fill="#ffffff" stroke="none" x="195" y="424" width="13" height="83"/></g><g transform="translate(-6,10) scale(1,1)"><path fill="none" stroke="#000000" d="M 195 424 L 208 424 L 208 507 L 195 507 L 195 424 Z Z" stroke-miterlimit="10"/></g><g transform="translate(-6,10) scale(1,1)"><path fill="none" stroke="#000000" d="M 208 456 L 238 456 L 238 476 L 215 476" stroke-miterlimit="10"/></g><g transform="translate(-6,10) scale(1,1)"><path fill="#000000" stroke="none" d="M 225.16267485762415 471.790482243984 L 215 476 L 225.16267485762415 480.209517756016"/></g><g transform="translate(-6,10) scale(1,1)"><path fill="none" stroke="#000000" d="M 225.16267485762415 471.790482243984 L 215 476 L 225.16267485762415 480.209517756016 L 225.16267485762415 471.790482243984" stroke-miterlimit="10"/></g><g transform="translate(-6,10) scale(1,1)"><g><path fill="none" stroke="none"/><text fill="#000000" stroke="none" font-family="Arial" font-size="13px" font-style="normal" font-weight="normal" text-decoration="none" x="123.5" y="470">13 : Mostrar número de células detectadas</text></g></g><g transform="translate(-6,10) scale(1,1)"><rect fill="#ffffff" stroke="none" x="202" y="476" width="13" height="28"/></g><g transform="translate(-6,10) scale(1,1)"><path fill="none" stroke="#000000" d="M 202 476 L 215 476 L 215 504 L 202 504 L 202 476 Z Z" stroke-miterlimit="10"/></g><g transform="translate(-6,10) scale(1,1)"><path fill="none" stroke="#000000" d="M 201 528 L 723 528" stroke-miterlimit="10"/></g><g transform="translate(-6,10) scale(1,1)"><path fill="#000000" stroke="none" d="M 712.8373251423759 532.209517756016 L 723 528 L 712.8373251423758 523.790482243984"/></g><g transform="translate(-6,10) scale(1,1)"><path fill="none" stroke="#000000" d="M 712.8373251423759 532.209517756016 L 723 528 L 712.8373251423758 523.790482243984 L 712.8373251423759 532.209517756016" stroke-miterlimit="10"/></g><g transform="translate(-6,10) scale(1,1)"><g><path fill="none" stroke="none"/><text fill="#000000" stroke="none" font-family="Arial" font-size="13px" font-style="normal" font-weight="normal" text-decoration="none" x="362.5" y="523">14 : drawBoundingBox():np.darray</text></g></g><g transform="translate(-6,10) scale(1,1)"><rect fill="#ffffff" stroke="none" x="723" y="528" width="13" height="176"/></g><g transform="translate(-6,10) scale(1,1)"><path fill="none" stroke="#000000" d="M 723 528 L 736 528 L 736 704 L 723 704 L 723 528 Z Z" stroke-miterlimit="10"/></g><g transform="translate(-6,10) scale(1,1)"><path fill="none" stroke="#000000" d="M 723 568 L 208 568" stroke-miterlimit="10"/></g><g transform="translate(-6,10) scale(1,1)"><path fill="#000000" stroke="none" d="M 218.16267485762415 563.790482243984 L 208 568 L 218.16267485762415 572.209517756016"/></g><g transform="translate(-6,10) scale(1,1)"><path fill="none" stroke="#000000" d="M 218.16267485762415 563.790482243984 L 208 568 L 218.16267485762415 572.209517756016 L 218.16267485762415 563.790482243984" stroke-miterlimit="10"/></g><g transform="translate(-6,10) scale(1,1)"><g><path fill="none" stroke="none"/><text fill="#000000" stroke="none" font-family="Arial" font-size="13px" font-style="normal" font-weight="normal" text-decoration="none" x="346.5" y="583">15 : Imagen con bounding box dibujados</text></g></g><g transform="translate(-6,10) scale(1,1)"><rect fill="#ffffff" stroke="none" x="195" y="568" width="13" height="120"/></g><g transform="translate(-6,10) scale(1,1)"><path fill="none" stroke="#000000" d="M 195 568 L 208 568 L 208 688 L 195 688 L 195 568 Z Z" stroke-miterlimit="10"/></g><g transform="translate(-6,10) scale(1,1)"><path fill="none" stroke="#000000" d="M 208 616 L 238 616 L 238 636 L 215 636" stroke-miterlimit="10"/></g><g transform="translate(-6,10) scale(1,1)"><path fill="#000000" stroke="none" d="M 225.16267485762415 631.790482243984 L 215 636 L 225.16267485762415 640.209517756016"/></g><g transform="translate(-6,10) scale(1,1)"><path fill="none" stroke="#000000" d="M 225.16267485762415 631.790482243984 L 215 636 L 225.16267485762415 640.209517756016 L 225.16267485762415 631.790482243984" stroke-miterlimit="10"/></g><g transform="translate(-6,10) scale(1,1)"><g><path fill="none" stroke="none"/><text fill="#000000" stroke="none" font-family="Arial" font-size="13px" font-style="normal" font-weight="normal" text-decoration="none" x="86.5" y="630">16 : Mostrar imagen sin procesar y con bounding boxes</text></g></g><g transform="translate(-6,10) scale(1,1)"><rect fill="#ffffff" stroke="none" x="202" y="636" width="13" height="28"/></g><g transform="translate(-6,10) scale(1,1)"><path fill="none" stroke="#000000" d="M 202 636 L 215 636 L 215 664 L 202 664 L 202 636 Z Z" stroke-miterlimit="10"/></g></g></svg>