<svg version="1.1" xmlns="http://www.w3.org/2000/svg" xmlns:xlink="http://www.w3.org/1999/xlink" width="453" height="597"><defs/><g><text fill="#eeeeee" stroke="none" font-family="Arial" font-size="24px" font-style="normal" font-weight="normal" text-decoration="none" x="0" y="0"> </text><text fill="#eeeeee" stroke="none" font-family="Arial" font-size="24px" font-style="normal" font-weight="normal" text-decoration="none" x="0" y="30"> </text><text fill="#eeeeee" stroke="none" font-family="Arial" font-size="24px" font-style="normal" font-weight="normal" text-decoration="none" x="0" y="60"> </text><text fill="#eeeeee" stroke="none" font-family="Arial" font-size="24px" font-style="normal" font-weight="normal" text-decoration="none" x="0" y="90"> </text><text fill="#eeeeee" stroke="none" font-family="Arial" font-size="24px" font-style="normal" font-weight="normal" text-decoration="none" x="0" y="120"> </text><text fill="#eeeeee" stroke="none" font-family="Arial" font-size="24px" font-style="normal" font-weight="normal" text-decoration="none" x="0" y="150"> </text><text fill="#eeeeee" stroke="none" font-family="Arial" font-size="24px" font-style="normal" font-weight="normal" text-decoration="none" x="0" y="180"> </text><text fill="#eeeeee" stroke="none" font-family="Arial" font-size="24px" font-style="normal" font-weight="normal" text-decoration="none" x="0" y="210"> </text><text fill="#eeeeee" stroke="none" font-family="Arial" font-size="24px" font-style="normal" font-weight="normal" text-decoration="none" x="0" y="240"> </text><text fill="#eeeeee" stroke="none" font-family="Arial" font-size="24px" font-style="normal" font-weight="normal" text-decoration="none" x="0" y="270"> </text><text fill="#eeeeee" stroke="none" font-family="Arial" font-size="24px" font-style="normal" font-weight="normal" text-decoration="none" x="0" y="300"> </text><text fill="#eeeeee" stroke="none" font-family="Arial" font-size="24px" font-style="normal" font-weight="normal" text-decoration="none" x="0" y="330"> </text><text fill="#eeeeee" stroke="none" font-family="Arial" font-size="24px" font-style="normal" font-weight="normal" text-decoration="none" x="0" y="360"> </text><text fill="#eeeeee" stroke="none" font-family="Arial" font-size="24px" font-style="normal" font-weight="normal" text-decoration="none" x="0" y="390"> </text><text fill="#eeeeee" stroke="none" font-family="Arial" font-size="24px" font-style="normal" font-weight="normal" text-decoration="none" x="0" y="420"> </text><text fill="#eeeeee" stroke="none" font-family="Arial" font-size="24px" font-style="normal" font-weight="normal" text-decoration="none" x="0" y="450"> </text><text fill="#eeeeee" stroke="none" font-family="Arial" font-size="24px" font-style="normal" font-weight="normal" text-decoration="none" x="0" y="480"> </text><text fill="#eeeeee" stroke="none" font-family="Arial" font-size="24px" font-style="normal" font-weight="normal" text-decoration="none" x="0" y="510"> </text><text fill="#eeeeee" stroke="none" font-family="Arial" font-size="24px" font-style="normal" font-weight="normal" text-decoration="none" x="0" y="540"> </text><text fill="#eeeeee" stroke="none" font-family="Arial" font-size="24px" font-style="normal" font-weight="normal" text-decoration="none" x="0" y="570"> </text><text fill="#eeeeee" stroke="none" font-family="Arial" font-size="24px" font-style="normal" font-weight="normal" text-decoration="none" x="200" y="0"> </text><text fill="#eeeeee" stroke="none" font-family="Arial" font-size="24px" font-style="normal" font-weight="normal" text-decoration="none" x="200" y="30"> </text><text fill="#eeeeee" stroke="none" font-family="Arial" font-size="24px" font-style="normal" font-weight="normal" text-decoration="none" x="200" y="60"> </text><text fill="#eeeeee" stroke="none" font-family="Arial" font-size="24px" font-style="normal" font-weight="normal" text-decoration="none" x="200" y="90"> </text><text fill="#eeeeee" stroke="none" font-family="Arial" font-size="24px" font-style="normal" font-weight="normal" text-decoration="none" x="200" y="120"> </text><text fill="#eeeeee" stroke="none" font-family="Arial" font-size="24px" font-style="normal" font-weight="normal" text-decoration="none" x="200" y="150"> </text><text fill="#eeeeee" stroke="none" font-family="Arial" font-size="24px" font-style="normal" font-weight="normal" text-decoration="none" x="200" y="180"> </text><text fill="#eeeeee" stroke="none" font-family="Arial" font-size="24px" font-style="normal" font-weight="normal" text-decoration="none" x="200" y="210"> </text><text fill="#eeeeee" stroke="none" font-family="Arial" font-size="24px" font-style="normal" font-weight="normal" text-decoration="none" x="200" y="240"> </text><text fill="#eeeeee" stroke="none" font-family="Arial" font-size="24px" font-style="normal" font-weight="normal" text-decoration="none" x="200" y="270"> </text><text fill="#eeeeee" stroke="none" font-family="Arial" font-size="24px" font-style="normal" font-weight="normal" text-decoration="none" x="200" y="300"> </text><text fill="#eeeeee" stroke="none" font-family="Arial" font-size="24px" font-style="normal" font-weight="normal" text-decoration="none" x="200" y="330"> </text><text fill="#eeeeee" stroke="none" font-family="Arial" font-size="24px" font-style="normal" font-weight="normal" text-decoration="none" x="200" y="360"> </text><text fill="#eeeeee" stroke="none" font-family="Arial" font-size="24px" font-style="normal" font-weight="normal" text-decoration="none" x="200" y="390"> </text><text fill="#eeeeee" stroke="none" font-family="Arial" font-size="24px" font-style="normal" font-weight="normal" text-decoration="none" x="200" y="420"> </text><text fill="#eeeeee" stroke="none" font-family="Arial" font-size="24px" font-style="normal" font-weight="normal" text-decoration="none" x="200" y="450"> </text><text fill="#eeeeee" stroke="none" font-family="Arial" font-size="24px" font-style="normal" font-weight="normal" text-decoration="none" x="200" y="480"> </text><text fill="#eeeeee" stroke="none" font-family="Arial" font-size="24px" font-style="normal" font-weight="normal" text-decoration="none" x="200" y="510"> </text><text fill="#eeeeee" stroke="none" font-family="Arial" font-size="24px" font-style="normal" font-weight="normal" text-decoration="none" x="200" y="540"> </text><text fill="#eeeeee" stroke="none" font-family="Arial" font-size="24px" font-style="normal" font-weight="normal" text-decoration="none" x="200" y="570"> </text><text fill="#eeeeee" stroke="none" font-family="Arial" font-size="24px" font-style="normal" font-weight="normal" text-decoration="none" x="400" y="0"> </text><text fill="#eeeeee" stroke="none" font-family="Arial" font-size="24px" font-style="normal" font-weight="normal" text-decoration="none" x="400" y="30"> </text><text fill="#eeeeee" stroke="none" font-family="Arial" font-size="24px" font-style="normal" font-weight="normal" text-decoration="none" x="400" y="60"> </text><text fill="#eeeeee" stroke="none" font-family="Arial" font-size="24px" font-style="normal" font-weight="normal" text-decoration="none" x="400" y="90"> </text><text fill="#eeeeee" stroke="none" font-family="Arial" font-size="24px" font-style="normal" font-weight="normal" text-decoration="none" x="400" y="120"> </text><text fill="#eeeeee" stroke="none" font-family="Arial" font-size="24px" font-style="normal" font-weight="normal" text-decoration="none" x="400" y="150"> </text><text fill="#eeeeee" stroke="none" font-family="Arial" font-size="24px" font-style="normal" font-weight="normal" text-decoration="none" x="400" y="180"> </text><text fill="#eeeeee" stroke="none" font-family="Arial" font-size="24px" font-style="normal" font-weight="normal" text-decoration="none" x="400" y="210"> </text><text fill="#eeeeee" stroke="none" font-family="Arial" font-size="24px" font-style="normal" font-weight="normal" text-decoration="none" x="400" y="240"> </text><text fill="#eeeeee" stroke="none" font-family="Arial" font-size="24px" font-style="normal" font-weight="normal" text-decoration="none" x="400" y="270"> </text><text fill="#eeeeee" stroke="none" font-family="Arial" font-size="24px" font-style="normal" font-weight="normal" text-decoration="none" x="400" y="300"> </text><text fill="#eeeeee" stroke="none" font-family="Arial" font-size="24px" font-style="normal" font-weight="normal" text-decoration="none" x="400" y="330"> </text><text fill="#eeeeee" stroke="none" font-family="Arial" font-size="24px" font-style="normal" font-weight="normal" text-decoration="none" x="400" y="360"> </text><text fill="#eeeeee" stroke="none" font-family="Arial" font-size="24px" font-style="normal" font-weight="normal" text-decoration="none" x="400" y="390"> </text><text fill="#eeeeee" stroke="none" font-family="Arial" font-size="24px" font-style="normal" font-weight="normal" text-decoration="none" x="400" y="420"> </text><text fill="#eeeeee" stroke="none" font-family="Arial" font-size="24px" font-style="normal" font-weight="normal" text-decoration="none" x="400" y="450"> </text><text fill="#eeeeee" stroke="none" font-family="Arial" font-size="24px" font-style="normal" font-weight="normal" text-decoration="none" x="400" y="480"> </text><text fill="#eeeeee" stroke="none" font-family="Arial" font-size="24px" font-style="normal" font-weight="normal" text-decoration="none" x="400" y="510"> </text><text fill="#eeeeee" stroke="none" font-family="Arial" font-size="24px" font-style="normal" font-weight="normal" text-decoration="none" x="400" y="540"> </text><text fill="#eeeeee" stroke="none" font-family="Arial" font-size="24px" font-style="normal" font-weight="normal" text-decoration="none" x="400" y="570"> </text><g transform="translate(-406,-38) scale(1,1)"><path fill="#C0C0C0" stroke="none" d="M 567 64.5 C 567 59.2532944 571.2532944 55 576.5 55 C 581.7467056 55 586 59.2532944 586 64.5 C 586 69.7467056 581.7467056 74 576.5 74 C 571.2532944 74 567 69.7467056 567 64.5 Z" opacity="0.2"/></g><g transform="translate(-406,-38) scale(1,1)"><path fill="#000000" stroke="none" d="M 560 57.5 C 560 52.2532944 564.2532944 48 569.5 48 C 574.7467056 48 579 52.2532944 579 57.5 C 579 62.7467056 574.7467056 67 569.5 67 C 564.2532944 67 560 62.7467056 560 57.5 Z"/></g><g transform="translate(-406,-38) scale(1,1)"><path fill="#C0C0C0" stroke="none" d="M 433 183 L 725 183 Q 735 183 735 193 L 735 213 Q 735 223 725 223 L 433 223 Q 423 223 423 213 L 423 193 Q 423 183 433 183 Z" opacity="0.2"/></g><g transform="translate(-406,-38) scale(1,1)"><path fill="#ffffff" stroke="none" d="M 426 176 L 718 176 Q 728 176 728 186 L 728 206 Q 728 216 718 216 L 426 216 Q 416 216 416 206 L 416 186 Q 416 176 426 176 Z"/></g><g transform="translate(-406,-38) scale(1,1)"><path fill="none" stroke="#000000" d="M 426 176 L 718 176 Q 728 176 728 186 L 728 206 Q 728 216 718 216 L 426 216 Q 416 216 416 206 L 416 186 Q 416 176 426 176 Z" stroke-miterlimit="10"/></g><g transform="translate(-406,-38) scale(1,1)"><g><path fill="none" stroke="none"/><text fill="#000000" stroke="none" font-family="Arial" font-size="13px" font-style="normal" font-weight="bold" text-decoration="none" x="475.5537109375" y="194">Extraer datos de una detección</text></g></g><g transform="translate(-406,-38) scale(1,1)"><path fill="#C0C0C0" stroke="none" d="M 535 123.5 L 575.5 103 L 615 123.5 L 575.5 143 L 535 123.5" opacity="0.2"/></g><g transform="translate(-406,-38) scale(1,1)"><path fill="#ffffff" stroke="none" d="M 528 116 L 568 96 L 608 116 L 568 136 L 528 116"/></g><g transform="translate(-406,-38) scale(1,1)"><path fill="none" stroke="#000000" d="M 528 116 L 568 96 L 608 116 L 568 136 L 528 116 L 528 116" stroke-miterlimit="10"/></g><g transform="translate(-406,-38) scale(1,1)"><path fill="#C0C0C0" stroke="none" d="M 775 123.5 C 775 116.59644 780.59644 111 787.5 111 C 794.40356 111 800 116.59644 800 123.5 C 800 130.40356 794.40356 136 787.5 136 C 780.59644 136 775 130.40356 775 123.5 Z" opacity="0.2"/></g><g transform="translate(-406,-38) scale(1,1)"><path fill="none" stroke="#000000" d="M 768 116.5 C 768 109.59644 773.59644 104 780.5 104 C 787.40356 104 793 109.59644 793 116.5 C 793 123.40356 787.40356 129 780.5 129 C 773.59644 129 768 123.40356 768 116.5 Z" stroke-miterlimit="10"/></g><g transform="translate(-406,-38) scale(1,1)"><path fill="#000000" stroke="none" d="M 773 116.5 C 773 112.357864 776.357864 109 780.5 109 C 784.642136 109 788 112.357864 788 116.5 C 788 120.642136 784.642136 124 780.5 124 C 776.357864 124 773 120.642136 773 116.5 Z"/></g><g transform="translate(-406,-38) scale(1,1)"><path fill="none" stroke="#000000" d="M 609 116 L 767 116" stroke-miterlimit="10"/></g><g transform="translate(-406,-38) scale(1,1)"><path fill="none" stroke="#000000" d="M 756.8373251423759 120.20951775601598 L 767 116 L 756.8373251423758 111.79048224398402" stroke-miterlimit="10"/></g><g transform="translate(-406,-38) scale(1,1)"><g><path fill="none" stroke="none"/><text fill="#000000" stroke="none" font-family="Arial" font-size="13px" font-style="normal" font-weight="normal" text-decoration="none" x="605.588623046875" y="106">No se han detectado células</text></g></g><g transform="translate(-406,-38) scale(1,1)"><path fill="none" stroke="#000000" d="M 569 68 L 568 95" stroke-miterlimit="10"/></g><g transform="translate(-406,-38) scale(1,1)"><path fill="none" stroke="#000000" d="M 564.1695039351113 84.68848702193164 L 568 95 L 572.582771008294 85.00008950612359" stroke-miterlimit="10"/></g><g transform="translate(-406,-38) scale(1,1)"><path fill="none" stroke="#000000" d="M 569 137 L 571 175" stroke-miterlimit="10"/></g><g transform="translate(-406,-38) scale(1,1)"><path fill="none" stroke="#000000" d="M 566.2621621840279 165.07261903473304 L 571 175 L 574.6695611521266 164.63012435220153" stroke-miterlimit="10"/></g><g transform="translate(-406,-38) scale(1,1)"><g><path fill="none" stroke="none"/><text fill="#000000" stroke="none" font-family="Arial" font-size="13px" font-style="normal" font-weight="normal" text-decoration="none" x="471.5" y="160">Se han detectado células en la imagen</text></g></g><g transform="translate(-406,-38) scale(1,1)"><path fill="#C0C0C0" stroke="none" d="M 433 255 L 720.3525390625 255 Q 730.3525390625 255 730.3525390625 265 L 730.3525390625 285 Q 730.3525390625 295 720.3525390625 295 L 433 295 Q 423 295 423 285 L 423 265 Q 423 255 433 255 Z" opacity="0.2"/></g><g transform="translate(-406,-38) scale(1,1)"><path fill="#ffffff" stroke="none" d="M 426 248 L 713.3525390625 248 Q 723.3525390625 248 723.3525390625 258 L 723.3525390625 278 Q 723.3525390625 288 713.3525390625 288 L 426 288 Q 416 288 416 278 L 416 258 Q 416 248 426 248 Z"/></g><g transform="translate(-406,-38) scale(1,1)"><path fill="none" stroke="#000000" d="M 426 248 L 713.3525390625 248 Q 723.3525390625 248 723.3525390625 258 L 723.3525390625 278 Q 723.3525390625 288 713.3525390625 288 L 426 288 Q 416 288 416 278 L 416 258 Q 416 248 426 248 Z" stroke-miterlimit="10"/></g><g transform="translate(-406,-38) scale(1,1)"><g><path fill="none" stroke="none"/><text fill="#000000" stroke="none" font-family="Arial" font-size="13px" font-style="normal" font-weight="bold" text-decoration="none" x="420.5" y="266">Reescalar parámetro de altura del bounding box</text></g></g><g transform="translate(-406,-38) scale(1,1)"><path fill="#C0C0C0" stroke="none" d="M 489 327 L 661.51708984375 327 Q 671.51708984375 327 671.51708984375 337 L 671.51708984375 357 Q 671.51708984375 367 661.51708984375 367 L 489 367 Q 479 367 479 357 L 479 337 Q 479 327 489 327 Z" opacity="0.2"/></g><g transform="translate(-406,-38) scale(1,1)"><path fill="#ffffff" stroke="none" d="M 482 320 L 654.51708984375 320 Q 664.51708984375 320 664.51708984375 330 L 664.51708984375 350 Q 664.51708984375 360 654.51708984375 360 L 482 360 Q 472 360 472 350 L 472 330 Q 472 320 482 320 Z"/></g><g transform="translate(-406,-38) scale(1,1)"><path fill="none" stroke="#000000" d="M 482 320 L 654.51708984375 320 Q 664.51708984375 320 664.51708984375 330 L 664.51708984375 350 Q 664.51708984375 360 654.51708984375 360 L 482 360 Q 472 360 472 350 L 472 330 Q 472 320 482 320 Z" stroke-miterlimit="10"/></g><g transform="translate(-406,-38) scale(1,1)"><g><path fill="none" stroke="none"/><text fill="#000000" stroke="none" font-family="Arial" font-size="13px" font-style="normal" font-weight="bold" text-decoration="none" x="476.5" y="338">Obtener clase de la detección</text></g></g><g transform="translate(-406,-38) scale(1,1)"><path fill="none" stroke="#000000" d="M 569 289 L 568 319" stroke-miterlimit="10"/></g><g transform="translate(-406,-38) scale(1,1)"><path fill="none" stroke="#000000" d="M 564.1313867055028 308.7027270028595 L 568 319 L 572.5457488696798 308.9832057416654" stroke-miterlimit="10"/></g><g transform="translate(-406,-38) scale(1,1)"><path fill="#C0C0C0" stroke="none" d="M 481 399 L 678.78076171875 399 Q 688.78076171875 399 688.78076171875 409 L 688.78076171875 429 Q 688.78076171875 439 678.78076171875 439 L 481 439 Q 471 439 471 429 L 471 409 Q 471 399 481 399 Z" opacity="0.2"/></g><g transform="translate(-406,-38) scale(1,1)"><path fill="#ffffff" stroke="none" d="M 474 392 L 671.78076171875 392 Q 681.78076171875 392 681.78076171875 402 L 681.78076171875 422 Q 681.78076171875 432 671.78076171875 432 L 474 432 Q 464 432 464 422 L 464 402 Q 464 392 474 392 Z"/></g><g transform="translate(-406,-38) scale(1,1)"><path fill="none" stroke="#000000" d="M 474 392 L 671.78076171875 392 Q 681.78076171875 392 681.78076171875 402 L 681.78076171875 422 Q 681.78076171875 432 671.78076171875 432 L 474 432 Q 464 432 464 422 L 464 402 Q 464 392 474 392 Z" stroke-miterlimit="10"/></g><g transform="translate(-406,-38) scale(1,1)"><g><path fill="none" stroke="none"/><text fill="#000000" stroke="none" font-family="Arial" font-size="13px" font-style="normal" font-weight="bold" text-decoration="none" x="468.5" y="410">Obtener precisión de la detección</text></g></g><g transform="translate(-406,-38) scale(1,1)"><path fill="none" stroke="#000000" d="M 569 361 L 571 391" stroke-miterlimit="10"/></g><g transform="translate(-406,-38) scale(1,1)"><path fill="none" stroke="#000000" d="M 566.1237945855094 381.13984681885256 L 571 391 L 574.5241832628826 380.5798209070277" stroke-miterlimit="10"/></g><g transform="translate(-406,-38) scale(1,1)"><path fill="none" stroke="#000000" d="M 571 217 L 570 247" stroke-miterlimit="10"/></g><g transform="translate(-406,-38) scale(1,1)"><path fill="none" stroke="#000000" d="M 566.1313867055028 236.7027270028595 L 570 247 L 574.5457488696798 236.9832057416654" stroke-miterlimit="10"/></g><g transform="translate(-406,-38) scale(1,1)"><path fill="#C0C0C0" stroke="none" d="M 449 471 L 707.4326171875 471 Q 717.4326171875 471 717.4326171875 481 L 717.4326171875 501 Q 717.4326171875 511 707.4326171875 511 L 449 511 Q 439 511 439 501 L 439 481 Q 439 471 449 471 Z" opacity="0.2"/></g><g transform="translate(-406,-38) scale(1,1)"><path fill="#ffffff" stroke="none" d="M 442 464 L 700.4326171875 464 Q 710.4326171875 464 710.4326171875 474 L 710.4326171875 494 Q 710.4326171875 504 700.4326171875 504 L 442 504 Q 432 504 432 494 L 432 474 Q 432 464 442 464 Z"/></g><g transform="translate(-406,-38) scale(1,1)"><path fill="none" stroke="#000000" d="M 442 464 L 700.4326171875 464 Q 710.4326171875 464 710.4326171875 474 L 710.4326171875 494 Q 710.4326171875 504 700.4326171875 504 L 442 504 Q 432 504 432 494 L 432 474 Q 432 464 442 464 Z" stroke-miterlimit="10"/></g><g transform="translate(-406,-38) scale(1,1)"><g><path fill="none" stroke="none"/><text fill="#000000" stroke="none" font-family="Arial" font-size="13px" font-style="normal" font-weight="bold" text-decoration="none" x="436.5" y="482">Dibujar bounding box con clase y precisión</text></g></g><g transform="translate(-406,-38) scale(1,1)"><path fill="none" stroke="#000000" d="M 572 433 L 571 463" stroke-miterlimit="10"/></g><g transform="translate(-406,-38) scale(1,1)"><path fill="none" stroke="#000000" d="M 567.1313867055028 452.7027270028595 L 571 463 L 575.5457488696798 452.9832057416654" stroke-miterlimit="10"/></g><g transform="translate(-406,-38) scale(1,1)"><path fill="#C0C0C0" stroke="none" d="M 567 619.5 C 567 612.59644 572.59644 607 579.5 607 C 586.40356 607 592 612.59644 592 619.5 C 592 626.40356 586.40356 632 579.5 632 C 572.59644 632 567 626.40356 567 619.5 Z" opacity="0.2"/></g><g transform="translate(-406,-38) scale(1,1)"><path fill="none" stroke="#000000" d="M 560 612.5 C 560 605.59644 565.59644 600 572.5 600 C 579.40356 600 585 605.59644 585 612.5 C 585 619.40356 579.40356 625 572.5 625 C 565.59644 625 560 619.40356 560 612.5 Z" stroke-miterlimit="10"/></g><g transform="translate(-406,-38) scale(1,1)"><path fill="#000000" stroke="none" d="M 565 612.5 C 565 608.357864 568.357864 605 572.5 605 C 576.642136 605 580 608.357864 580 612.5 C 580 616.642136 576.642136 620 572.5 620 C 568.357864 620 565 616.642136 565 612.5 Z"/></g><g transform="translate(-406,-38) scale(1,1)"><path fill="none" stroke="#000000" d="M 571 505 L 572 599" stroke-miterlimit="10"/></g><g transform="translate(-406,-38) scale(1,1)"><path fill="none" stroke="#000000" d="M 567.6826129814013 588.8826797356397 L 572 599 L 576.1011721285073 588.7931205957768" stroke-miterlimit="10"/></g><g transform="translate(-406,-38) scale(1,1)"><g><path fill="none" stroke="none"/><text fill="#000000" stroke="none" font-family="Arial" font-size="13px" font-style="normal" font-weight="normal" text-decoration="none" x="474.5" y="556">Devuelve imagen con bounding boxes</text></g></g><g transform="translate(-406,-38) scale(1,1)"><path fill="none" stroke="#000000" d="M 710 488 L 848 488 L 848 196 L 728 196" stroke-miterlimit="10"/></g><g transform="translate(-406,-38) scale(1,1)"><path fill="none" stroke="#000000" d="M 738.1626748576241 191.790482243984 L 728 196 L 738.1626748576241 200.209517756016" stroke-miterlimit="10"/></g></g></svg>