<svg version="1.1" xmlns="http://www.w3.org/2000/svg" xmlns:xlink="http://www.w3.org/1999/xlink" width="1133" height="597"><defs/><g><text fill="#eeeeee" stroke="none" font-family="Arial" font-size="24px" font-style="normal" font-weight="normal" text-decoration="none" x="0" y="0"> </text><text fill="#eeeeee" stroke="none" font-family="Arial" font-size="24px" font-style="normal" font-weight="normal" text-decoration="none" x="0" y="30"> </text><text fill="#eeeeee" stroke="none" font-family="Arial" font-size="24px" font-style="normal" font-weight="normal" text-decoration="none" x="0" y="60"> </text><text fill="#eeeeee" stroke="none" font-family="Arial" font-size="24px" font-style="normal" font-weight="normal" text-decoration="none" x="0" y="90"> </text><text fill="#eeeeee" stroke="none" font-family="Arial" font-size="24px" font-style="normal" font-weight="normal" text-decoration="none" x="0" y="120"> </text><text fill="#eeeeee" stroke="none" font-family="Arial" font-size="24px" font-style="normal" font-weight="normal" text-decoration="none" x="0" y="150"> </text><text fill="#eeeeee" stroke="none" font-family="Arial" font-size="24px" font-style="normal" font-weight="normal" text-decoration="none" x="0" y="180"> </text><text fill="#eeeeee" stroke="none" font-family="Arial" font-size="24px" font-style="normal" font-weight="normal" text-decoration="none" x="0" y="210"> </text><text fill="#eeeeee" stroke="none" font-family="Arial" font-size="24px" font-style="normal" font-weight="normal" text-decoration="none" x="0" y="240"> </text><text fill="#eeeeee" stroke="none" font-family="Arial" font-size="24px" font-style="normal" font-weight="normal" text-decoration="none" x="0" y="270"> </text><text fill="#eeeeee" stroke="none" font-family="Arial" font-size="24px" font-style="normal" font-weight="normal" text-decoration="none" x="0" y="300"> </text><text fill="#eeeeee" stroke="none" font-family="Arial" font-size="24px" font-style="normal" font-weight="normal" text-decoration="none" x="0" y="330"> </text><text fill="#eeeeee" stroke="none" font-family="Arial" font-size="24px" font-style="normal" font-weight="normal" text-decoration="none" x="0" y="360"> </text><text fill="#eeeeee" stroke="none" font-family="Arial" font-size="24px" font-style="normal" font-weight="normal" text-decoration="none" x="0" y="390"> </text><text fill="#eeeeee" stroke="none" font-family="Arial" font-size="24px" font-style="normal" font-weight="normal" text-decoration="none" x="0" y="420"> </text><text fill="#eeeeee" stroke="none" font-family="Arial" font-size="24px" font-style="normal" font-weight="normal" text-decoration="none" x="0" y="450"> </text><text fill="#eeeeee" stroke="none" font-family="Arial" font-size="24px" font-style="normal" font-weight="normal" text-decoration="none" x="0" y="480"> </text><text fill="#eeeeee" stroke="none" font-family="Arial" font-size="24px" font-style="normal" font-weight="normal" text-decoration="none" x="0" y="510"> </text><text fill="#eeeeee" stroke="none" font-family="Arial" font-size="24px" font-style="normal" font-weight="normal" text-decoration="none" x="0" y="540"> </text><text fill="#eeeeee" stroke="none" font-family="Arial" font-size="24px" font-style="normal" font-weight="normal" text-decoration="none" x="0" y="570"> </text><text fill="#eeeeee" stroke="none" font-family="Arial" font-size="24px" font-style="normal" font-weight="normal" text-decoration="none" x="200" y="0"> </text><text fill="#eeeeee" stroke="none" font-family="Arial" font-size="24px" font-style="normal" font-weight="normal" text-decoration="none" x="200" y="30"> </text><text fill="#eeeeee" stroke="none" font-family="Arial" font-size="24px" font-style="normal" font-weight="normal" text-decoration="none" x="200" y="60"> </text><text fill="#eeeeee" stroke="none" font-family="Arial" font-size="24px" font-style="normal" font-weight="normal" text-decoration="none" x="200" y="90"> </text><text fill="#eeeeee" stroke="none" font-family="Arial" font-size="24px" font-style="normal" font-weight="normal" text-decoration="none" x="200" y="120"> </text><text fill="#eeeeee" stroke="none" font-family="Arial" font-size="24px" font-style="normal" font-weight="normal" text-decoration="none" x="200" y="150"> </text><text fill="#eeeeee" stroke="none" font-family="Arial" font-size="24px" font-style="normal" font-weight="normal" text-decoration="none" x="200" y="180"> </text><text fill="#eeeeee" stroke="none" font-family="Arial" font-size="24px" font-style="normal" font-weight="normal" text-decoration="none" x="200" y="210"> </text><text fill="#eeeeee" stroke="none" font-family="Arial" font-size="24px" font-style="normal" font-weight="normal" text-decoration="none" x="200" y="240"> </text><text fill="#eeeeee" stroke="none" font-family="Arial" font-size="24px" font-style="normal" font-weight="normal" text-decoration="none" x="200" y="270"> </text><text fill="#eeeeee" stroke="none" font-family="Arial" font-size="24px" font-style="normal" font-weight="normal" text-decoration="none" x="200" y="300"> </text><text fill="#eeeeee" stroke="none" font-family="Arial" font-size="24px" font-style="normal" font-weight="normal" text-decoration="none" x="200" y="330"> </text><text fill="#eeeeee" stroke="none" font-family="Arial" font-size="24px" font-style="normal" font-weight="normal" text-decoration="none" x="200" y="360"> </text><text fill="#eeeeee" stroke="none" font-family="Arial" font-size="24px" font-style="normal" font-weight="normal" text-decoration="none" x="200" y="390"> </text><text fill="#eeeeee" stroke="none" font-family="Arial" font-size="24px" font-style="normal" font-weight="normal" text-decoration="none" x="200" y="420"> </text><text fill="#eeeeee" stroke="none" font-family="Arial" font-size="24px" font-style="normal" font-weight="normal" text-decoration="none" x="200" y="450"> </text><text fill="#eeeeee" stroke="none" font-family="Arial" font-size="24px" font-style="normal" font-weight="normal" text-decoration="none" x="200" y="480"> </text><text fill="#eeeeee" stroke="none" font-family="Arial" font-size="24px" font-style="normal" font-weight="normal" text-decoration="none" x="200" y="510"> </text><text fill="#eeeeee" stroke="none" font-family="Arial" font-size="24px" font-style="normal" font-weight="normal" text-decoration="none" x="200" y="540"> </text><text fill="#eeeeee" stroke="none" font-family="Arial" font-size="24px" font-style="normal" font-weight="normal" text-decoration="none" x="200" y="570"> </text><text fill="#eeeeee" stroke="none" font-family="Arial" font-size="24px" font-style="normal" font-weight="normal" text-decoration="none" x="400" y="0"> </text><text fill="#eeeeee" stroke="none" font-family="Arial" font-size="24px" font-style="normal" font-weight="normal" text-decoration="none" x="400" y="30"> </text><text fill="#eeeeee" stroke="none" font-family="Arial" font-size="24px" font-style="normal" font-weight="normal" text-decoration="none" x="400" y="60"> </text><text fill="#eeeeee" stroke="none" font-family="Arial" font-size="24px" font-style="normal" font-weight="normal" text-decoration="none" x="400" y="90"> </text><text fill="#eeeeee" stroke="none" font-family="Arial" font-size="24px" font-style="normal" font-weight="normal" text-decoration="none" x="400" y="120"> </text><text fill="#eeeeee" stroke="none" font-family="Arial" font-size="24px" font-style="normal" font-weight="normal" text-decoration="none" x="400" y="150"> </text><text fill="#eeeeee" stroke="none" font-family="Arial" font-size="24px" font-style="normal" font-weight="normal" text-decoration="none" x="400" y="180"> </text><text fill="#eeeeee" stroke="none" font-family="Arial" font-size="24px" font-style="normal" font-weight="normal" text-decoration="none" x="400" y="210"> </text><text fill="#eeeeee" stroke="none" font-family="Arial" font-size="24px" font-style="normal" font-weight="normal" text-decoration="none" x="400" y="240"> </text><text fill="#eeeeee" stroke="none" font-family="Arial" font-size="24px" font-style="normal" font-weight="normal" text-decoration="none" x="400" y="270"> </text><text fill="#eeeeee" stroke="none" font-family="Arial" font-size="24px" font-style="normal" font-weight="normal" text-decoration="none" x="400" y="300"> </text><text fill="#eeeeee" stroke="none" font-family="Arial" font-size="24px" font-style="normal" font-weight="normal" text-decoration="none" x="400" y="330"> </text><text fill="#eeeeee" stroke="none" font-family="Arial" font-size="24px" font-style="normal" font-weight="normal" text-decoration="none" x="400" y="360"> </text><text fill="#eeeeee" stroke="none" font-family="Arial" font-size="24px" font-style="normal" font-weight="normal" text-decoration="none" x="400" y="390"> </text><text fill="#eeeeee" stroke="none" font-family="Arial" font-size="24px" font-style="normal" font-weight="normal" text-decoration="none" x="400" y="420"> </text><text fill="#eeeeee" stroke="none" font-family="Arial" font-size="24px" font-style="normal" font-weight="normal" text-decoration="none" x="400" y="450"> </text><text fill="#eeeeee" stroke="none" font-family="Arial" font-size="24px" font-style="normal" font-weight="normal" text-decoration="none" x="400" y="480"> </text><text fill="#eeeeee" stroke="none" font-family="Arial" font-size="24px" font-style="normal" font-weight="normal" text-decoration="none" x="400" y="510"> </text><text fill="#eeeeee" stroke="none" font-family="Arial" font-size="24px" font-style="normal" font-weight="normal" text-decoration="none" x="400" y="540"> </text><text fill="#eeeeee" stroke="none" font-family="Arial" font-size="24px" font-style="normal" font-weight="normal" text-decoration="none" x="400" y="570"> </text><text fill="#eeeeee" stroke="none" font-family="Arial" font-size="24px" font-style="normal" font-weight="normal" text-decoration="none" x="600" y="0"> </text><text fill="#eeeeee" stroke="none" font-family="Arial" font-size="24px" font-style="normal" font-weight="normal" text-decoration="none" x="600" y="30"> </text><text fill="#eeeeee" stroke="none" font-family="Arial" font-size="24px" font-style="normal" font-weight="normal" text-decoration="none" x="600" y="60"> </text><text fill="#eeeeee" stroke="none" font-family="Arial" font-size="24px" font-style="normal" font-weight="normal" text-decoration="none" x="600" y="90"> </text><text fill="#eeeeee" stroke="none" font-family="Arial" font-size="24px" font-style="normal" font-weight="normal" text-decoration="none" x="600" y="120"> </text><text fill="#eeeeee" stroke="none" font-family="Arial" font-size="24px" font-style="normal" font-weight="normal" text-decoration="none" x="600" y="150"> </text><text fill="#eeeeee" stroke="none" font-family="Arial" font-size="24px" font-style="normal" font-weight="normal" text-decoration="none" x="600" y="180"> </text><text fill="#eeeeee" stroke="none" font-family="Arial" font-size="24px" font-style="normal" font-weight="normal" text-decoration="none" x="600" y="210"> </text><text fill="#eeeeee" stroke="none" font-family="Arial" font-size="24px" font-style="normal" font-weight="normal" text-decoration="none" x="600" y="240"> </text><text fill="#eeeeee" stroke="none" font-family="Arial" font-size="24px" font-style="normal" font-weight="normal" text-decoration="none" x="600" y="270"> </text><text fill="#eeeeee" stroke="none" font-family="Arial" font-size="24px" font-style="normal" font-weight="normal" text-decoration="none" x="600" y="300"> </text><text fill="#eeeeee" stroke="none" font-family="Arial" font-size="24px" font-style="normal" font-weight="normal" text-decoration="none" x="600" y="330"> </text><text fill="#eeeeee" stroke="none" font-family="Arial" font-size="24px" font-style="normal" font-weight="normal" text-decoration="none" x="600" y="360"> </text><text fill="#eeeeee" stroke="none" font-family="Arial" font-size="24px" font-style="normal" font-weight="normal" text-decoration="none" x="600" y="390"> </text><text fill="#eeeeee" stroke="none" font-family="Arial" font-size="24px" font-style="normal" font-weight="normal" text-decoration="none" x="600" y="420"> </text><text fill="#eeeeee" stroke="none" font-family="Arial" font-size="24px" font-style="normal" font-weight="normal" text-decoration="none" x="600" y="450"> </text><text fill="#eeeeee" stroke="none" font-family="Arial" font-size="24px" font-style="normal" font-weight="normal" text-decoration="none" x="600" y="480"> </text><text fill="#eeeeee" stroke="none" font-family="Arial" font-size="24px" font-style="normal" font-weight="normal" text-decoration="none" x="600" y="510"> </text><text fill="#eeeeee" stroke="none" font-family="Arial" font-size="24px" font-style="normal" font-weight="normal" text-decoration="none" x="600" y="540"> </text><text fill="#eeeeee" stroke="none" font-family="Arial" font-size="24px" font-style="normal" font-weight="normal" text-decoration="none" x="600" y="570"> </text><text fill="#eeeeee" stroke="none" font-family="Arial" font-size="24px" font-style="normal" font-weight="normal" text-decoration="none" x="800" y="0"> </text><text fill="#eeeeee" stroke="none" font-family="Arial" font-size="24px" font-style="normal" font-weight="normal" text-decoration="none" x="800" y="30"> </text><text fill="#eeeeee" stroke="none" font-family="Arial" font-size="24px" font-style="normal" font-weight="normal" text-decoration="none" x="800" y="60"> </text><text fill="#eeeeee" stroke="none" font-family="Arial" font-size="24px" font-style="normal" font-weight="normal" text-decoration="none" x="800" y="90"> </text><text fill="#eeeeee" stroke="none" font-family="Arial" font-size="24px" font-style="normal" font-weight="normal" text-decoration="none" x="800" y="120"> </text><text fill="#eeeeee" stroke="none" font-family="Arial" font-size="24px" font-style="normal" font-weight="normal" text-decoration="none" x="800" y="150"> </text><text fill="#eeeeee" stroke="none" font-family="Arial" font-size="24px" font-style="normal" font-weight="normal" text-decoration="none" x="800" y="180"> </text><text fill="#eeeeee" stroke="none" font-family="Arial" font-size="24px" font-style="normal" font-weight="normal" text-decoration="none" x="800" y="210"> </text><text fill="#eeeeee" stroke="none" font-family="Arial" font-size="24px" font-style="normal" font-weight="normal" text-decoration="none" x="800" y="240"> </text><text fill="#eeeeee" stroke="none" font-family="Arial" font-size="24px" font-style="normal" font-weight="normal" text-decoration="none" x="800" y="270"> </text><text fill="#eeeeee" stroke="none" font-family="Arial" font-size="24px" font-style="normal" font-weight="normal" text-decoration="none" x="800" y="300"> </text><text fill="#eeeeee" stroke="none" font-family="Arial" font-size="24px" font-style="normal" font-weight="normal" text-decoration="none" x="800" y="330"> </text><text fill="#eeeeee" stroke="none" font-family="Arial" font-size="24px" font-style="normal" font-weight="normal" text-decoration="none" x="800" y="360"> </text><text fill="#eeeeee" stroke="none" font-family="Arial" font-size="24px" font-style="normal" font-weight="normal" text-decoration="none" x="800" y="390"> </text><text fill="#eeeeee" stroke="none" font-family="Arial" font-size="24px" font-style="normal" font-weight="normal" text-decoration="none" x="800" y="420"> </text><text fill="#eeeeee" stroke="none" font-family="Arial" font-size="24px" font-style="normal" font-weight="normal" text-decoration="none" x="800" y="450"> </text><text fill="#eeeeee" stroke="none" font-family="Arial" font-size="24px" font-style="normal" font-weight="normal" text-decoration="none" x="800" y="480"> </text><text fill="#eeeeee" stroke="none" font-family="Arial" font-size="24px" font-style="normal" font-weight="normal" text-decoration="none" x="800" y="510"> </text><text fill="#eeeeee" stroke="none" font-family="Arial" font-size="24px" font-style="normal" font-weight="normal" text-decoration="none" x="800" y="540"> </text><text fill="#eeeeee" stroke="none" font-family="Arial" font-size="24px" font-style="normal" font-weight="normal" text-decoration="none" x="800" y="570"> </text><text fill="#eeeeee" stroke="none" font-family="Arial" font-size="24px" font-style="normal" font-weight="normal" text-decoration="none" x="1000" y="0"> </text><text fill="#eeeeee" stroke="none" font-family="Arial" font-size="24px" font-style="normal" font-weight="normal" text-decoration="none" x="1000" y="30"> </text><text fill="#eeeeee" stroke="none" font-family="Arial" font-size="24px" font-style="normal" font-weight="normal" text-decoration="none" x="1000" y="60"> </text><text fill="#eeeeee" stroke="none" font-family="Arial" font-size="24px" font-style="normal" font-weight="normal" text-decoration="none" x="1000" y="90"> </text><text fill="#eeeeee" stroke="none" font-family="Arial" font-size="24px" font-style="normal" font-weight="normal" text-decoration="none" x="1000" y="120"> </text><text fill="#eeeeee" stroke="none" font-family="Arial" font-size="24px" font-style="normal" font-weight="normal" text-decoration="none" x="1000" y="150"> </text><text fill="#eeeeee" stroke="none" font-family="Arial" font-size="24px" font-style="normal" font-weight="normal" text-decoration="none" x="1000" y="180"> </text><text fill="#eeeeee" stroke="none" font-family="Arial" font-size="24px" font-style="normal" font-weight="normal" text-decoration="none" x="1000" y="210"> </text><text fill="#eeeeee" stroke="none" font-family="Arial" font-size="24px" font-style="normal" font-weight="normal" text-decoration="none" x="1000" y="240"> </text><text fill="#eeeeee" stroke="none" font-family="Arial" font-size="24px" font-style="normal" font-weight="normal" text-decoration="none" x="1000" y="270"> </text><text fill="#eeeeee" stroke="none" font-family="Arial" font-size="24px" font-style="normal" font-weight="normal" text-decoration="none" x="1000" y="300"> </text><text fill="#eeeeee" stroke="none" font-family="Arial" font-size="24px" font-style="normal" font-weight="normal" text-decoration="none" x="1000" y="330"> </text><text fill="#eeeeee" stroke="none" font-family="Arial" font-size="24px" font-style="normal" font-weight="normal" text-decoration="none" x="1000" y="360"> </text><text fill="#eeeeee" stroke="none" font-family="Arial" font-size="24px" font-style="normal" font-weight="normal" text-decoration="none" x="1000" y="390"> </text><text fill="#eeeeee" stroke="none" font-family="Arial" font-size="24px" font-style="normal" font-weight="normal" text-decoration="none" x="1000" y="420"> </text><text fill="#eeeeee" stroke="none" font-family="Arial" font-size="24px" font-style="normal" font-weight="normal" text-decoration="none" x="1000" y="450"> </text><text fill="#eeeeee" stroke="none" font-family="Arial" font-size="24px" font-style="normal" font-weight="normal" text-decoration="none" x="1000" y="480"> </text><text fill="#eeeeee" stroke="none" font-family="Arial" font-size="24px" font-style="normal" font-weight="normal" text-decoration="none" x="1000" y="510"> </text><text fill="#eeeeee" stroke="none" font-family="Arial" font-size="24px" font-style="normal" font-weight="normal" text-decoration="none" x="1000" y="540"> </text><text fill="#eeeeee" stroke="none" font-family="Arial" font-size="24px" font-style="normal" font-weight="normal" text-decoration="none" x="1000" y="570"> </text><g transform="translate(-318,-14) scale(1,1)"><path fill="#C0C0C0" stroke="none" d="M 543 40.5 C 543 35.2532944 547.2532944 31 552.5 31 C 557.7467056 31 562 35.2532944 562 40.5 C 562 45.7467056 557.7467056 50 552.5 50 C 547.2532944 50 543 45.7467056 543 40.5 Z" opacity="0.2"/></g><g transform="translate(-318,-14) scale(1,1)"><path fill="#000000" stroke="none" d="M 536 33.5 C 536 28.2532944 540.2532944 24 545.5 24 C 550.7467056 24 555 28.2532944 555 33.5 C 555 38.7467056 550.7467056 43 545.5 43 C 540.2532944 43 536 38.7467056 536 33.5 Z"/></g><g transform="translate(-318,-14) scale(1,1)"><path fill="#C0C0C0" stroke="none" d="M 401 271 L 693 271 Q 703 271 703 281 L 703 301 Q 703 311 693 311 L 401 311 Q 391 311 391 301 L 391 281 Q 391 271 401 271 Z" opacity="0.2"/></g><g transform="translate(-318,-14) scale(1,1)"><path fill="#ffffff" stroke="none" d="M 394 264 L 686 264 Q 696 264 696 274 L 696 294 Q 696 304 686 304 L 394 304 Q 384 304 384 294 L 384 274 Q 384 264 394 264 Z"/></g><g transform="translate(-318,-14) scale(1,1)"><path fill="none" stroke="#000000" d="M 394 264 L 686 264 Q 696 264 696 274 L 696 294 Q 696 304 686 304 L 394 304 Q 384 304 384 294 L 384 274 Q 384 264 394 264 Z" stroke-miterlimit="10"/></g><g transform="translate(-318,-14) scale(1,1)"><g><path fill="none" stroke="none"/><text fill="#000000" stroke="none" font-family="Arial" font-size="13px" font-style="normal" font-weight="bold" text-decoration="none" x="437.050537109375" y="282">Extraer imagen de entrenamiento</text></g></g><g transform="translate(-318,-14) scale(1,1)"><path fill="#C0C0C0" stroke="none" d="M 369 343 L 725.70068359375 343 Q 735.70068359375 343 735.70068359375 353 L 735.70068359375 373 Q 735.70068359375 383 725.70068359375 383 L 369 383 Q 359 383 359 373 L 359 353 Q 359 343 369 343 Z" opacity="0.2"/></g><g transform="translate(-318,-14) scale(1,1)"><path fill="#ffffff" stroke="none" d="M 362 336 L 718.70068359375 336 Q 728.70068359375 336 728.70068359375 346 L 728.70068359375 366 Q 728.70068359375 376 718.70068359375 376 L 362 376 Q 352 376 352 366 L 352 346 Q 352 336 362 336 Z"/></g><g transform="translate(-318,-14) scale(1,1)"><path fill="none" stroke="#000000" d="M 362 336 L 718.70068359375 336 Q 728.70068359375 336 728.70068359375 346 L 728.70068359375 366 Q 728.70068359375 376 718.70068359375 376 L 362 376 Q 352 376 352 366 L 352 346 Q 352 336 362 336 Z" stroke-miterlimit="10"/></g><g transform="translate(-318,-14) scale(1,1)"><g><path fill="none" stroke="none"/><text fill="#000000" stroke="none" font-family="Arial" font-size="13px" font-style="normal" font-weight="bold" text-decoration="none" x="356.5" y="354">Obtener nombre del archivo de la imagen de entrenamiento</text></g></g><g transform="translate(-318,-14) scale(1,1)"><path fill="#C0C0C0" stroke="none" d="M 377 407 L 719.9833984375 407 Q 729.9833984375 407 729.9833984375 417 L 729.9833984375 437 Q 729.9833984375 447 719.9833984375 447 L 377 447 Q 367 447 367 437 L 367 417 Q 367 407 377 407 Z" opacity="0.2"/></g><g transform="translate(-318,-14) scale(1,1)"><path fill="#ffffff" stroke="none" d="M 370 400 L 712.9833984375 400 Q 722.9833984375 400 722.9833984375 410 L 722.9833984375 430 Q 722.9833984375 440 712.9833984375 440 L 370 440 Q 360 440 360 430 L 360 410 Q 360 400 370 400 Z"/></g><g transform="translate(-318,-14) scale(1,1)"><path fill="none" stroke="#000000" d="M 370 400 L 712.9833984375 400 Q 722.9833984375 400 722.9833984375 410 L 722.9833984375 430 Q 722.9833984375 440 712.9833984375 440 L 370 440 Q 360 440 360 430 L 360 410 Q 360 400 370 400 Z" stroke-miterlimit="10"/></g><g transform="translate(-318,-14) scale(1,1)"><g><path fill="none" stroke="none"/><text fill="#000000" stroke="none" font-family="Arial" font-size="13px" font-style="normal" font-weight="bold" text-decoration="none" x="364.5" y="418">Obtener nombre del archivo de anotaciones de la imagen</text></g></g><g transform="translate(-318,-14) scale(1,1)"><path fill="none" stroke="#000000" d="M 540 377 L 541 399" stroke-miterlimit="10"/></g><g transform="translate(-318,-14) scale(1,1)"><path fill="none" stroke="#000000" d="M 536.3333608983219 389.0389518877435 L 541 399 L 544.7437125137551 388.6566631779511" stroke-miterlimit="10"/></g><g transform="translate(-318,-14) scale(1,1)"><path fill="#C0C0C0" stroke="none" d="M 385 471 L 712.79345703125 471 Q 722.79345703125 471 722.79345703125 481 L 722.79345703125 501 Q 722.79345703125 511 712.79345703125 511 L 385 511 Q 375 511 375 501 L 375 481 Q 375 471 385 471 Z" opacity="0.2"/></g><g transform="translate(-318,-14) scale(1,1)"><path fill="#ffffff" stroke="none" d="M 378 464 L 705.79345703125 464 Q 715.79345703125 464 715.79345703125 474 L 715.79345703125 494 Q 715.79345703125 504 705.79345703125 504 L 378 504 Q 368 504 368 494 L 368 474 Q 368 464 378 464 Z"/></g><g transform="translate(-318,-14) scale(1,1)"><path fill="none" stroke="#000000" d="M 378 464 L 705.79345703125 464 Q 715.79345703125 464 715.79345703125 474 L 715.79345703125 494 Q 715.79345703125 504 705.79345703125 504 L 378 504 Q 368 504 368 494 L 368 474 Q 368 464 378 464 Z" stroke-miterlimit="10"/></g><g transform="translate(-318,-14) scale(1,1)"><g><path fill="none" stroke="none"/><text fill="#000000" stroke="none" font-family="Arial" font-size="13px" font-style="normal" font-weight="bold" text-decoration="none" x="372.5" y="482">Copiar imagen de entrenamiento a la ruta trainImgPath</text></g></g><g transform="translate(-318,-14) scale(1,1)"><path fill="none" stroke="#000000" d="M 541 441 L 541 463" stroke-miterlimit="10"/></g><g transform="translate(-318,-14) scale(1,1)"><path fill="none" stroke="#000000" d="M 536.790482243984 452.83732514237585 L 541 463 L 545.209517756016 452.83732514237585" stroke-miterlimit="10"/></g><g transform="translate(-318,-14) scale(1,1)"><path fill="none" stroke="#000000" d="M 540 305 L 540 335" stroke-miterlimit="10"/></g><g transform="translate(-318,-14) scale(1,1)"><path fill="none" stroke="#000000" d="M 535.790482243984 324.83732514237585 L 540 335 L 544.209517756016 324.83732514237585" stroke-miterlimit="10"/></g><g transform="translate(-318,-14) scale(1,1)"><path fill="#C0C0C0" stroke="none" d="M 385 535 L 724.37158203125 535 Q 734.37158203125 535 734.37158203125 545 L 734.37158203125 565 Q 734.37158203125 575 724.37158203125 575 L 385 575 Q 375 575 375 565 L 375 545 Q 375 535 385 535 Z" opacity="0.2"/></g><g transform="translate(-318,-14) scale(1,1)"><path fill="#ffffff" stroke="none" d="M 378 528 L 717.37158203125 528 Q 727.37158203125 528 727.37158203125 538 L 727.37158203125 558 Q 727.37158203125 568 717.37158203125 568 L 378 568 Q 368 568 368 558 L 368 538 Q 368 528 378 528 Z"/></g><g transform="translate(-318,-14) scale(1,1)"><path fill="none" stroke="#000000" d="M 378 528 L 717.37158203125 528 Q 727.37158203125 528 727.37158203125 538 L 727.37158203125 558 Q 727.37158203125 568 717.37158203125 568 L 378 568 Q 368 568 368 558 L 368 538 Q 368 528 378 528 Z" stroke-miterlimit="10"/></g><g transform="translate(-318,-14) scale(1,1)"><g><path fill="none" stroke="none"/><text fill="#000000" stroke="none" font-family="Arial" font-size="13px" font-style="normal" font-weight="bold" text-decoration="none" x="372.5" y="546">Copiar anotaciones de la imagen a la ruta trainLabelPath</text></g></g><g transform="translate(-318,-14) scale(1,1)"><path fill="none" stroke="#000000" d="M 543 505 L 545 527" stroke-miterlimit="10"/></g><g transform="translate(-318,-14) scale(1,1)"><path fill="none" stroke="#000000" d="M 539.887684514256 517.2601729802722 L 545 527 L 548.272144785699 516.4979493192318" stroke-miterlimit="10"/></g><g transform="translate(-318,-14) scale(1,1)"><path fill="#C0C0C0" stroke="none" d="M 873 271 L 1229.70068359375 271 Q 1239.70068359375 271 1239.70068359375 281 L 1239.70068359375 301 Q 1239.70068359375 311 1229.70068359375 311 L 873 311 Q 863 311 863 301 L 863 281 Q 863 271 873 271 Z" opacity="0.2"/></g><g transform="translate(-318,-14) scale(1,1)"><path fill="#ffffff" stroke="none" d="M 866 264 L 1222.70068359375 264 Q 1232.70068359375 264 1232.70068359375 274 L 1232.70068359375 294 Q 1232.70068359375 304 1222.70068359375 304 L 866 304 Q 856 304 856 294 L 856 274 Q 856 264 866 264 Z"/></g><g transform="translate(-318,-14) scale(1,1)"><path fill="none" stroke="#000000" d="M 866 264 L 1222.70068359375 264 Q 1232.70068359375 264 1232.70068359375 274 L 1232.70068359375 294 Q 1232.70068359375 304 1222.70068359375 304 L 866 304 Q 856 304 856 294 L 856 274 Q 856 264 866 264 Z" stroke-miterlimit="10"/></g><g transform="translate(-318,-14) scale(1,1)"><g><path fill="none" stroke="none"/><text fill="#000000" stroke="none" font-family="Arial" font-size="13px" font-style="normal" font-weight="bold" text-decoration="none" x="954.397705078125" y="282">Extraer imagen de validación</text></g></g><g transform="translate(-318,-14) scale(1,1)"><path fill="#C0C0C0" stroke="none" d="M 881 455 L 1223.9833984375 455 Q 1233.9833984375 455 1233.9833984375 465 L 1233.9833984375 485 Q 1233.9833984375 495 1223.9833984375 495 L 881 495 Q 871 495 871 485 L 871 465 Q 871 455 881 455 Z" opacity="0.2"/></g><g transform="translate(-318,-14) scale(1,1)"><path fill="#ffffff" stroke="none" d="M 874 448 L 1216.9833984375 448 Q 1226.9833984375 448 1226.9833984375 458 L 1226.9833984375 478 Q 1226.9833984375 488 1216.9833984375 488 L 874 488 Q 864 488 864 478 L 864 458 Q 864 448 874 448 Z"/></g><g transform="translate(-318,-14) scale(1,1)"><path fill="none" stroke="#000000" d="M 874 448 L 1216.9833984375 448 Q 1226.9833984375 448 1226.9833984375 458 L 1226.9833984375 478 Q 1226.9833984375 488 1216.9833984375 488 L 874 488 Q 864 488 864 478 L 864 458 Q 864 448 874 448 Z" stroke-miterlimit="10"/></g><g transform="translate(-318,-14) scale(1,1)"><g><path fill="none" stroke="none"/><text fill="#000000" stroke="none" font-family="Arial" font-size="13px" font-style="normal" font-weight="bold" text-decoration="none" x="894.141357421875" y="466">Copiar imagen de validación a la ruta valImgPath</text></g></g><g transform="translate(-318,-14) scale(1,1)"><path fill="#C0C0C0" stroke="none" d="M 881 519 L 1228.37158203125 519 Q 1238.37158203125 519 1238.37158203125 529 L 1238.37158203125 549 Q 1238.37158203125 559 1228.37158203125 559 L 881 559 Q 871 559 871 549 L 871 529 Q 871 519 881 519 Z" opacity="0.2"/></g><g transform="translate(-318,-14) scale(1,1)"><path fill="#ffffff" stroke="none" d="M 874 512 L 1221.37158203125 512 Q 1231.37158203125 512 1231.37158203125 522 L 1231.37158203125 542 Q 1231.37158203125 552 1221.37158203125 552 L 874 552 Q 864 552 864 542 L 864 522 Q 864 512 874 512 Z"/></g><g transform="translate(-318,-14) scale(1,1)"><path fill="none" stroke="#000000" d="M 874 512 L 1221.37158203125 512 Q 1231.37158203125 512 1231.37158203125 522 L 1231.37158203125 542 Q 1231.37158203125 552 1221.37158203125 552 L 874 552 Q 864 552 864 542 L 864 522 Q 864 512 874 512 Z" stroke-miterlimit="10"/></g><g transform="translate(-318,-14) scale(1,1)"><g><path fill="none" stroke="none"/><text fill="#000000" stroke="none" font-family="Arial" font-size="13px" font-style="normal" font-weight="bold" text-decoration="none" x="877.549560546875" y="530">Copiar anotaciones de la imagen a la ruta valLabelPath</text></g></g><g transform="translate(-318,-14) scale(1,1)"><path fill="none" stroke="#000000" d="M 1046 489 L 1046 511" stroke-miterlimit="10"/></g><g transform="translate(-318,-14) scale(1,1)"><path fill="none" stroke="#000000" d="M 1041.7904822439841 500.83732514237585 L 1046 511 L 1050.2095177560159 500.83732514237585" stroke-miterlimit="10"/></g><g transform="translate(-318,-14) scale(1,1)"><path fill="none" stroke="#000000" d="M 1047 553 L 1048 600 L 824 600 L 824 192 L 975 192" stroke-miterlimit="10"/></g><g transform="translate(-318,-14) scale(1,1)"><path fill="none" stroke="#000000" d="M 964.8373251423759 196.209517756016 L 975 192 L 964.8373251423758 187.790482243984" stroke-miterlimit="10"/></g><g transform="translate(-318,-14) scale(1,1)"><path fill="#C0C0C0" stroke="none" d="M 881 335 L 1211.70703125 335 Q 1221.70703125 335 1221.70703125 345 L 1221.70703125 365 Q 1221.70703125 375 1211.70703125 375 L 881 375 Q 871 375 871 365 L 871 345 Q 871 335 881 335 Z" opacity="0.2"/></g><g transform="translate(-318,-14) scale(1,1)"><path fill="#ffffff" stroke="none" d="M 874 328 L 1204.70703125 328 Q 1214.70703125 328 1214.70703125 338 L 1214.70703125 358 Q 1214.70703125 368 1204.70703125 368 L 874 368 Q 864 368 864 358 L 864 338 Q 864 328 874 328 Z"/></g><g transform="translate(-318,-14) scale(1,1)"><path fill="none" stroke="#000000" d="M 874 328 L 1204.70703125 328 Q 1214.70703125 328 1214.70703125 338 L 1214.70703125 358 Q 1214.70703125 368 1204.70703125 368 L 874 368 Q 864 368 864 358 L 864 338 Q 864 328 874 328 Z" stroke-miterlimit="10"/></g><g transform="translate(-318,-14) scale(1,1)"><g><path fill="none" stroke="none"/><text fill="#000000" stroke="none" font-family="Arial" font-size="13px" font-style="normal" font-weight="bold" text-decoration="none" x="868.5" y="346">Obtener nombre del archivo de la imagen de validación</text></g></g><g transform="translate(-318,-14) scale(1,1)"><path fill="none" stroke="#000000" d="M 1042 305 L 1041 327" stroke-miterlimit="10"/></g><g transform="translate(-318,-14) scale(1,1)"><path fill="none" stroke="#000000" d="M 1037.256287486245 316.6566631779511 L 1041 327 L 1045.6666391016781 317.0389518877435" stroke-miterlimit="10"/></g><g transform="translate(-318,-14) scale(1,1)"><path fill="#C0C0C0" stroke="none" d="M 881 399 L 1223.9833984375 399 Q 1233.9833984375 399 1233.9833984375 409 L 1233.9833984375 429 Q 1233.9833984375 439 1223.9833984375 439 L 881 439 Q 871 439 871 429 L 871 409 Q 871 399 881 399 Z" opacity="0.2"/></g><g transform="translate(-318,-14) scale(1,1)"><path fill="#ffffff" stroke="none" d="M 874 392 L 1216.9833984375 392 Q 1226.9833984375 392 1226.9833984375 402 L 1226.9833984375 422 Q 1226.9833984375 432 1216.9833984375 432 L 874 432 Q 864 432 864 422 L 864 402 Q 864 392 874 392 Z"/></g><g transform="translate(-318,-14) scale(1,1)"><path fill="none" stroke="#000000" d="M 874 392 L 1216.9833984375 392 Q 1226.9833984375 392 1226.9833984375 402 L 1226.9833984375 422 Q 1226.9833984375 432 1216.9833984375 432 L 874 432 Q 864 432 864 422 L 864 402 Q 864 392 874 392 Z" stroke-miterlimit="10"/></g><g transform="translate(-318,-14) scale(1,1)"><g><path fill="none" stroke="none"/><text fill="#000000" stroke="none" font-family="Arial" font-size="13px" font-style="normal" font-weight="bold" text-decoration="none" x="868.5" y="410">Obtener nombre del archivo de anotaciones de la imagen</text></g></g><g transform="translate(-318,-14) scale(1,1)"><path fill="none" stroke="#000000" d="M 1041 369 L 1043 391" stroke-miterlimit="10"/></g><g transform="translate(-318,-14) scale(1,1)"><path fill="none" stroke="#000000" d="M 1037.8876845142559 381.2601729802721 L 1043 391 L 1046.2721447856989 380.49794931923185" stroke-miterlimit="10"/></g><g transform="translate(-318,-14) scale(1,1)"><path fill="none" stroke="#000000" d="M 1045 433 L 1045 447" stroke-miterlimit="10"/></g><g transform="translate(-318,-14) scale(1,1)"><path fill="none" stroke="#000000" d="M 1040.7904822439841 436.83732514237585 L 1045 447 L 1049.2095177560159 436.83732514237585" stroke-miterlimit="10"/></g><g transform="translate(-318,-14) scale(1,1)"><path fill="#C0C0C0" stroke="none" d="M 487 120.5 L 551.5 95 L 615 120.5 L 551.5 145 L 487 120.5" opacity="0.2"/></g><g transform="translate(-318,-14) scale(1,1)"><path fill="#ffffff" stroke="none" d="M 480 113 L 544 88 L 608 113 L 544 138 L 480 113"/></g><g transform="translate(-318,-14) scale(1,1)"><path fill="none" stroke="#000000" d="M 480 113 L 544 88 L 608 113 L 544 138 L 480 113 L 480 113" stroke-miterlimit="10"/></g><g transform="translate(-318,-14) scale(1,1)"><path fill="none" stroke="#000000" d="M 545 44 L 544 87" stroke-miterlimit="10"/></g><g transform="translate(-318,-14) scale(1,1)"><path fill="none" stroke="#000000" d="M 540.0278974963754 76.7422028826507 L 544 87 L 548.4446572858326 76.9379414824055" stroke-miterlimit="10"/></g><g transform="translate(-318,-14) scale(1,1)"><path fill="none" stroke="#000000" d="M 543 139 L 540 263" stroke-miterlimit="10"/></g><g transform="translate(-318,-14) scale(1,1)"><path fill="none" stroke="#000000" d="M 536.037512917137 252.7384847065288 L 540 263 L 544.4540855626063 252.94211146408048" stroke-miterlimit="10"/></g><g transform="translate(-318,-14) scale(1,1)"><g><path fill="none" stroke="none"/><text fill="#000000" stroke="none" font-family="Arial" font-size="13px" font-style="normal" font-weight="normal" text-decoration="none" x="341.5" y="206">Quedan imágenes de entrenamiento para copiar a la ruta correspondiente</text></g></g><g transform="translate(-318,-14) scale(1,1)"><path fill="#C0C0C0" stroke="none" d="M 983 199.5 L 1055.5 175 L 1127 199.5 L 1055.5 223 L 983 199.5" opacity="0.2"/></g><g transform="translate(-318,-14) scale(1,1)"><path fill="#ffffff" stroke="none" d="M 976 192 L 1048 168 L 1120 192 L 1048 216 L 976 192"/></g><g transform="translate(-318,-14) scale(1,1)"><path fill="none" stroke="#000000" d="M 976 192 L 1048 168 L 1120 192 L 1048 216 L 976 192 L 976 192" stroke-miterlimit="10"/></g><g transform="translate(-318,-14) scale(1,1)"><path fill="none" stroke="#000000" d="M 1047 217 L 1045 263" stroke-miterlimit="10"/></g><g transform="translate(-318,-14) scale(1,1)"><path fill="none" stroke="#000000" d="M 1041.2358937491852 252.6640673312673 L 1045 263 L 1049.6469830248905 253.02976686499363" stroke-miterlimit="10"/></g><g transform="translate(-318,-14) scale(1,1)"><g><path fill="none" stroke="none"/><text fill="#000000" stroke="none" font-family="Arial" font-size="13px" font-style="normal" font-weight="normal" text-decoration="none" x="859.5" y="245">Quedan imágenes de validación para copiar a la ruta correspondiente</text></g></g><g transform="translate(-318,-14) scale(1,1)"><path fill="none" stroke="#000000" d="M 609 113 L 1048 112 L 1048 167" stroke-miterlimit="10"/></g><g transform="translate(-318,-14) scale(1,1)"><path fill="none" stroke="#000000" d="M 1043.7904822439841 156.83732514237585 L 1048 167 L 1052.2095177560159 156.83732514237585" stroke-miterlimit="10"/></g><g transform="translate(-318,-14) scale(1,1)"><g><path fill="none" stroke="none"/><text fill="#000000" stroke="none" font-family="Arial" font-size="13px" font-style="normal" font-weight="normal" text-decoration="none" x="671.5" y="106">No quedan imágenes de entrenamiento a procesar</text></g></g><g transform="translate(-318,-14) scale(1,1)"><path fill="none" stroke="#000000" d="M 547 568 L 547 600 L 328 600 L 328 121 L 480 121" stroke-miterlimit="10"/></g><g transform="translate(-318,-14) scale(1,1)"><path fill="none" stroke="#000000" d="M 469.83732514237585 125.20951775601598 L 480 121 L 469.83732514237585 116.79048224398402" stroke-miterlimit="10"/></g><g transform="translate(-318,-14) scale(1,1)"><path fill="#C0C0C0" stroke="none" d="M 1423 195.5 C 1423 188.59644 1428.59644 183 1435.5 183 C 1442.40356 183 1448 188.59644 1448 195.5 C 1448 202.40356 1442.40356 208 1435.5 208 C 1428.59644 208 1423 202.40356 1423 195.5 Z" opacity="0.2"/></g><g transform="translate(-318,-14) scale(1,1)"><path fill="none" stroke="#000000" d="M 1416 188.5 C 1416 181.59644 1421.59644 176 1428.5 176 C 1435.40356 176 1441 181.59644 1441 188.5 C 1441 195.40356 1435.40356 201 1428.5 201 C 1421.59644 201 1416 195.40356 1416 188.5 Z" stroke-miterlimit="10"/></g><g transform="translate(-318,-14) scale(1,1)"><path fill="#000000" stroke="none" d="M 1421 188.5 C 1421 184.357864 1424.357864 181 1428.5 181 C 1432.642136 181 1436 184.357864 1436 188.5 C 1436 192.642136 1432.642136 196 1428.5 196 C 1424.357864 196 1421 192.642136 1421 188.5 Z"/></g><g transform="translate(-318,-14) scale(1,1)"><path fill="none" stroke="#000000" d="M 1121 191 L 1415 188" stroke-miterlimit="10"/></g><g transform="translate(-318,-14) scale(1,1)"><path fill="none" stroke="#000000" d="M 1404.8808062133135 192.31299398416962 L 1415 188 L 1404.79490215987 183.89439674671627" stroke-miterlimit="10"/></g><g transform="translate(-318,-14) scale(1,1)"><g><path fill="none" stroke="none"/><text fill="#000000" stroke="none" font-family="Arial" font-size="13px" font-style="normal" font-weight="normal" text-decoration="none" x="1133.15087890625" y="179">No quedan imágenes de validación a procesar</text></g></g></g></svg>