<svg version="1.1" xmlns="http://www.w3.org/2000/svg" xmlns:xlink="http://www.w3.org/1999/xlink" width="485" height="757"><defs/><g><text fill="#eeeeee" stroke="none" font-family="Arial" font-size="24px" font-style="normal" font-weight="normal" text-decoration="none" x="0" y="0"> </text><text fill="#eeeeee" stroke="none" font-family="Arial" font-size="24px" font-style="normal" font-weight="normal" text-decoration="none" x="0" y="30"> </text><text fill="#eeeeee" stroke="none" font-family="Arial" font-size="24px" font-style="normal" font-weight="normal" text-decoration="none" x="0" y="60"> </text><text fill="#eeeeee" stroke="none" font-family="Arial" font-size="24px" font-style="normal" font-weight="normal" text-decoration="none" x="0" y="90"> </text><text fill="#eeeeee" stroke="none" font-family="Arial" font-size="24px" font-style="normal" font-weight="normal" text-decoration="none" x="0" y="120"> </text><text fill="#eeeeee" stroke="none" font-family="Arial" font-size="24px" font-style="normal" font-weight="normal" text-decoration="none" x="0" y="150"> </text><text fill="#eeeeee" stroke="none" font-family="Arial" font-size="24px" font-style="normal" font-weight="normal" text-decoration="none" x="0" y="180"> </text><text fill="#eeeeee" stroke="none" font-family="Arial" font-size="24px" font-style="normal" font-weight="normal" text-decoration="none" x="0" y="210"> </text><text fill="#eeeeee" stroke="none" font-family="Arial" font-size="24px" font-style="normal" font-weight="normal" text-decoration="none" x="0" y="240"> </text><text fill="#eeeeee" stroke="none" font-family="Arial" font-size="24px" font-style="normal" font-weight="normal" text-decoration="none" x="0" y="270"> </text><text fill="#eeeeee" stroke="none" font-family="Arial" font-size="24px" font-style="normal" font-weight="normal" text-decoration="none" x="0" y="300"> </text><text fill="#eeeeee" stroke="none" font-family="Arial" font-size="24px" font-style="normal" font-weight="normal" text-decoration="none" x="0" y="330"> </text><text fill="#eeeeee" stroke="none" font-family="Arial" font-size="24px" font-style="normal" font-weight="normal" text-decoration="none" x="0" y="360"> </text><text fill="#eeeeee" stroke="none" font-family="Arial" font-size="24px" font-style="normal" font-weight="normal" text-decoration="none" x="0" y="390"> </text><text fill="#eeeeee" stroke="none" font-family="Arial" font-size="24px" font-style="normal" font-weight="normal" text-decoration="none" x="0" y="420"> </text><text fill="#eeeeee" stroke="none" font-family="Arial" font-size="24px" font-style="normal" font-weight="normal" text-decoration="none" x="0" y="450"> </text><text fill="#eeeeee" stroke="none" font-family="Arial" font-size="24px" font-style="normal" font-weight="normal" text-decoration="none" x="0" y="480"> </text><text fill="#eeeeee" stroke="none" font-family="Arial" font-size="24px" font-style="normal" font-weight="normal" text-decoration="none" x="0" y="510"> </text><text fill="#eeeeee" stroke="none" font-family="Arial" font-size="24px" font-style="normal" font-weight="normal" text-decoration="none" x="0" y="540"> </text><text fill="#eeeeee" stroke="none" font-family="Arial" font-size="24px" font-style="normal" font-weight="normal" text-decoration="none" x="0" y="570"> </text><text fill="#eeeeee" stroke="none" font-family="Arial" font-size="24px" font-style="normal" font-weight="normal" text-decoration="none" x="0" y="600"> </text><text fill="#eeeeee" stroke="none" font-family="Arial" font-size="24px" font-style="normal" font-weight="normal" text-decoration="none" x="0" y="630"> </text><text fill="#eeeeee" stroke="none" font-family="Arial" font-size="24px" font-style="normal" font-weight="normal" text-decoration="none" x="0" y="660"> </text><text fill="#eeeeee" stroke="none" font-family="Arial" font-size="24px" font-style="normal" font-weight="normal" text-decoration="none" x="0" y="690"> </text><text fill="#eeeeee" stroke="none" font-family="Arial" font-size="24px" font-style="normal" font-weight="normal" text-decoration="none" x="0" y="720"> </text><text fill="#eeeeee" stroke="none" font-family="Arial" font-size="24px" font-style="normal" font-weight="normal" text-decoration="none" x="0" y="750"> </text><text fill="#eeeeee" stroke="none" font-family="Arial" font-size="24px" font-style="normal" font-weight="normal" text-decoration="none" x="200" y="0"> </text><text fill="#eeeeee" stroke="none" font-family="Arial" font-size="24px" font-style="normal" font-weight="normal" text-decoration="none" x="200" y="30"> </text><text fill="#eeeeee" stroke="none" font-family="Arial" font-size="24px" font-style="normal" font-weight="normal" text-decoration="none" x="200" y="60"> </text><text fill="#eeeeee" stroke="none" font-family="Arial" font-size="24px" font-style="normal" font-weight="normal" text-decoration="none" x="200" y="90"> </text><text fill="#eeeeee" stroke="none" font-family="Arial" font-size="24px" font-style="normal" font-weight="normal" text-decoration="none" x="200" y="120"> </text><text fill="#eeeeee" stroke="none" font-family="Arial" font-size="24px" font-style="normal" font-weight="normal" text-decoration="none" x="200" y="150"> </text><text fill="#eeeeee" stroke="none" font-family="Arial" font-size="24px" font-style="normal" font-weight="normal" text-decoration="none" x="200" y="180"> </text><text fill="#eeeeee" stroke="none" font-family="Arial" font-size="24px" font-style="normal" font-weight="normal" text-decoration="none" x="200" y="210"> </text><text fill="#eeeeee" stroke="none" font-family="Arial" font-size="24px" font-style="normal" font-weight="normal" text-decoration="none" x="200" y="240"> </text><text fill="#eeeeee" stroke="none" font-family="Arial" font-size="24px" font-style="normal" font-weight="normal" text-decoration="none" x="200" y="270"> </text><text fill="#eeeeee" stroke="none" font-family="Arial" font-size="24px" font-style="normal" font-weight="normal" text-decoration="none" x="200" y="300"> </text><text fill="#eeeeee" stroke="none" font-family="Arial" font-size="24px" font-style="normal" font-weight="normal" text-decoration="none" x="200" y="330"> </text><text fill="#eeeeee" stroke="none" font-family="Arial" font-size="24px" font-style="normal" font-weight="normal" text-decoration="none" x="200" y="360"> </text><text fill="#eeeeee" stroke="none" font-family="Arial" font-size="24px" font-style="normal" font-weight="normal" text-decoration="none" x="200" y="390"> </text><text fill="#eeeeee" stroke="none" font-family="Arial" font-size="24px" font-style="normal" font-weight="normal" text-decoration="none" x="200" y="420"> </text><text fill="#eeeeee" stroke="none" font-family="Arial" font-size="24px" font-style="normal" font-weight="normal" text-decoration="none" x="200" y="450"> </text><text fill="#eeeeee" stroke="none" font-family="Arial" font-size="24px" font-style="normal" font-weight="normal" text-decoration="none" x="200" y="480"> </text><text fill="#eeeeee" stroke="none" font-family="Arial" font-size="24px" font-style="normal" font-weight="normal" text-decoration="none" x="200" y="510"> </text><text fill="#eeeeee" stroke="none" font-family="Arial" font-size="24px" font-style="normal" font-weight="normal" text-decoration="none" x="200" y="540"> </text><text fill="#eeeeee" stroke="none" font-family="Arial" font-size="24px" font-style="normal" font-weight="normal" text-decoration="none" x="200" y="570"> </text><text fill="#eeeeee" stroke="none" font-family="Arial" font-size="24px" font-style="normal" font-weight="normal" text-decoration="none" x="200" y="600"> </text><text fill="#eeeeee" stroke="none" font-family="Arial" font-size="24px" font-style="normal" font-weight="normal" text-decoration="none" x="200" y="630"> </text><text fill="#eeeeee" stroke="none" font-family="Arial" font-size="24px" font-style="normal" font-weight="normal" text-decoration="none" x="200" y="660"> </text><text fill="#eeeeee" stroke="none" font-family="Arial" font-size="24px" font-style="normal" font-weight="normal" text-decoration="none" x="200" y="690"> </text><text fill="#eeeeee" stroke="none" font-family="Arial" font-size="24px" font-style="normal" font-weight="normal" text-decoration="none" x="200" y="720"> </text><text fill="#eeeeee" stroke="none" font-family="Arial" font-size="24px" font-style="normal" font-weight="normal" text-decoration="none" x="200" y="750"> </text><text fill="#eeeeee" stroke="none" font-family="Arial" font-size="24px" font-style="normal" font-weight="normal" text-decoration="none" x="400" y="0"> </text><text fill="#eeeeee" stroke="none" font-family="Arial" font-size="24px" font-style="normal" font-weight="normal" text-decoration="none" x="400" y="30"> </text><text fill="#eeeeee" stroke="none" font-family="Arial" font-size="24px" font-style="normal" font-weight="normal" text-decoration="none" x="400" y="60"> </text><text fill="#eeeeee" stroke="none" font-family="Arial" font-size="24px" font-style="normal" font-weight="normal" text-decoration="none" x="400" y="90"> </text><text fill="#eeeeee" stroke="none" font-family="Arial" font-size="24px" font-style="normal" font-weight="normal" text-decoration="none" x="400" y="120"> </text><text fill="#eeeeee" stroke="none" font-family="Arial" font-size="24px" font-style="normal" font-weight="normal" text-decoration="none" x="400" y="150"> </text><text fill="#eeeeee" stroke="none" font-family="Arial" font-size="24px" font-style="normal" font-weight="normal" text-decoration="none" x="400" y="180"> </text><text fill="#eeeeee" stroke="none" font-family="Arial" font-size="24px" font-style="normal" font-weight="normal" text-decoration="none" x="400" y="210"> </text><text fill="#eeeeee" stroke="none" font-family="Arial" font-size="24px" font-style="normal" font-weight="normal" text-decoration="none" x="400" y="240"> </text><text fill="#eeeeee" stroke="none" font-family="Arial" font-size="24px" font-style="normal" font-weight="normal" text-decoration="none" x="400" y="270"> </text><text fill="#eeeeee" stroke="none" font-family="Arial" font-size="24px" font-style="normal" font-weight="normal" text-decoration="none" x="400" y="300"> </text><text fill="#eeeeee" stroke="none" font-family="Arial" font-size="24px" font-style="normal" font-weight="normal" text-decoration="none" x="400" y="330"> </text><text fill="#eeeeee" stroke="none" font-family="Arial" font-size="24px" font-style="normal" font-weight="normal" text-decoration="none" x="400" y="360"> </text><text fill="#eeeeee" stroke="none" font-family="Arial" font-size="24px" font-style="normal" font-weight="normal" text-decoration="none" x="400" y="390"> </text><text fill="#eeeeee" stroke="none" font-family="Arial" font-size="24px" font-style="normal" font-weight="normal" text-decoration="none" x="400" y="420"> </text><text fill="#eeeeee" stroke="none" font-family="Arial" font-size="24px" font-style="normal" font-weight="normal" text-decoration="none" x="400" y="450"> </text><text fill="#eeeeee" stroke="none" font-family="Arial" font-size="24px" font-style="normal" font-weight="normal" text-decoration="none" x="400" y="480"> </text><text fill="#eeeeee" stroke="none" font-family="Arial" font-size="24px" font-style="normal" font-weight="normal" text-decoration="none" x="400" y="510"> </text><text fill="#eeeeee" stroke="none" font-family="Arial" font-size="24px" font-style="normal" font-weight="normal" text-decoration="none" x="400" y="540"> </text><text fill="#eeeeee" stroke="none" font-family="Arial" font-size="24px" font-style="normal" font-weight="normal" text-decoration="none" x="400" y="570"> </text><text fill="#eeeeee" stroke="none" font-family="Arial" font-size="24px" font-style="normal" font-weight="normal" text-decoration="none" x="400" y="600"> </text><text fill="#eeeeee" stroke="none" font-family="Arial" font-size="24px" font-style="normal" font-weight="normal" text-decoration="none" x="400" y="630"> </text><text fill="#eeeeee" stroke="none" font-family="Arial" font-size="24px" font-style="normal" font-weight="normal" text-decoration="none" x="400" y="660"> </text><text fill="#eeeeee" stroke="none" font-family="Arial" font-size="24px" font-style="normal" font-weight="normal" text-decoration="none" x="400" y="690"> </text><text fill="#eeeeee" stroke="none" font-family="Arial" font-size="24px" font-style="normal" font-weight="normal" text-decoration="none" x="400" y="720"> </text><text fill="#eeeeee" stroke="none" font-family="Arial" font-size="24px" font-style="normal" font-weight="normal" text-decoration="none" x="400" y="750"> </text><g transform="translate(-358,-14) scale(1,1)"><path fill="#C0C0C0" stroke="none" d="M 551 40.5 C 551 35.2532944 555.2532944 31 560.5 31 C 565.7467056 31 570 35.2532944 570 40.5 C 570 45.7467056 565.7467056 50 560.5 50 C 555.2532944 50 551 45.7467056 551 40.5 Z" opacity="0.2"/></g><g transform="translate(-358,-14) scale(1,1)"><path fill="#000000" stroke="none" d="M 544 33.5 C 544 28.2532944 548.2532944 24 553.5 24 C 558.7467056 24 563 28.2532944 563 33.5 C 563 38.7467056 558.7467056 43 553.5 43 C 548.2532944 43 544 38.7467056 544 33.5 Z"/></g><g transform="translate(-358,-14) scale(1,1)"><path fill="#C0C0C0" stroke="none" d="M 417 79 L 709 79 Q 719 79 719 89 L 719 109 Q 719 119 709 119 L 417 119 Q 407 119 407 109 L 407 89 Q 407 79 417 79 Z" opacity="0.2"/></g><g transform="translate(-358,-14) scale(1,1)"><path fill="#ffffff" stroke="none" d="M 410 72 L 702 72 Q 712 72 712 82 L 712 102 Q 712 112 702 112 L 410 112 Q 400 112 400 102 L 400 82 Q 400 72 410 72 Z"/></g><g transform="translate(-358,-14) scale(1,1)"><path fill="none" stroke="#000000" d="M 410 72 L 702 72 Q 712 72 712 82 L 712 102 Q 712 112 702 112 L 410 112 Q 400 112 400 102 L 400 82 Q 400 72 410 72 Z" stroke-miterlimit="10"/></g><g transform="translate(-358,-14) scale(1,1)"><g><path fill="none" stroke="none"/><text fill="#000000" stroke="none" font-family="Arial" font-size="13px" font-style="normal" font-weight="bold" text-decoration="none" x="453.050537109375" y="90">Extraer imagen de entrenamiento</text></g></g><g transform="translate(-358,-14) scale(1,1)"><path fill="#C0C0C0" stroke="none" d="M 385 143 L 741.70068359375 143 Q 751.70068359375 143 751.70068359375 153 L 751.70068359375 173 Q 751.70068359375 183 741.70068359375 183 L 385 183 Q 375 183 375 173 L 375 153 Q 375 143 385 143 Z" opacity="0.2"/></g><g transform="translate(-358,-14) scale(1,1)"><path fill="#ffffff" stroke="none" d="M 378 136 L 734.70068359375 136 Q 744.70068359375 136 744.70068359375 146 L 744.70068359375 166 Q 744.70068359375 176 734.70068359375 176 L 378 176 Q 368 176 368 166 L 368 146 Q 368 136 378 136 Z"/></g><g transform="translate(-358,-14) scale(1,1)"><path fill="none" stroke="#000000" d="M 378 136 L 734.70068359375 136 Q 744.70068359375 136 744.70068359375 146 L 744.70068359375 166 Q 744.70068359375 176 734.70068359375 176 L 378 176 Q 368 176 368 166 L 368 146 Q 368 136 378 136 Z" stroke-miterlimit="10"/></g><g transform="translate(-358,-14) scale(1,1)"><g><path fill="none" stroke="none"/><text fill="#000000" stroke="none" font-family="Arial" font-size="13px" font-style="normal" font-weight="bold" text-decoration="none" x="372.5" y="154">Obtener nombre del archivo de la imagen de entrenamiento</text></g></g><g transform="translate(-358,-14) scale(1,1)"><path fill="#C0C0C0" stroke="none" d="M 393 207 L 735.9833984375 207 Q 745.9833984375 207 745.9833984375 217 L 745.9833984375 237 Q 745.9833984375 247 735.9833984375 247 L 393 247 Q 383 247 383 237 L 383 217 Q 383 207 393 207 Z" opacity="0.2"/></g><g transform="translate(-358,-14) scale(1,1)"><path fill="#ffffff" stroke="none" d="M 386 200 L 728.9833984375 200 Q 738.9833984375 200 738.9833984375 210 L 738.9833984375 230 Q 738.9833984375 240 728.9833984375 240 L 386 240 Q 376 240 376 230 L 376 210 Q 376 200 386 200 Z"/></g><g transform="translate(-358,-14) scale(1,1)"><path fill="none" stroke="#000000" d="M 386 200 L 728.9833984375 200 Q 738.9833984375 200 738.9833984375 210 L 738.9833984375 230 Q 738.9833984375 240 728.9833984375 240 L 386 240 Q 376 240 376 230 L 376 210 Q 376 200 386 200 Z" stroke-miterlimit="10"/></g><g transform="translate(-358,-14) scale(1,1)"><g><path fill="none" stroke="none"/><text fill="#000000" stroke="none" font-family="Arial" font-size="13px" font-style="normal" font-weight="bold" text-decoration="none" x="380.5" y="218">Obtener nombre del archivo de anotaciones de la imagen</text></g></g><g transform="translate(-358,-14) scale(1,1)"><path fill="none" stroke="#000000" d="M 556 177 L 557 199" stroke-miterlimit="10"/></g><g transform="translate(-358,-14) scale(1,1)"><path fill="none" stroke="#000000" d="M 552.3333608983219 189.0389518877435 L 557 199 L 560.7437125137551 188.6566631779511" stroke-miterlimit="10"/></g><g transform="translate(-358,-14) scale(1,1)"><path fill="#C0C0C0" stroke="none" d="M 401 271 L 728.79345703125 271 Q 738.79345703125 271 738.79345703125 281 L 738.79345703125 301 Q 738.79345703125 311 728.79345703125 311 L 401 311 Q 391 311 391 301 L 391 281 Q 391 271 401 271 Z" opacity="0.2"/></g><g transform="translate(-358,-14) scale(1,1)"><path fill="#ffffff" stroke="none" d="M 394 264 L 721.79345703125 264 Q 731.79345703125 264 731.79345703125 274 L 731.79345703125 294 Q 731.79345703125 304 721.79345703125 304 L 394 304 Q 384 304 384 294 L 384 274 Q 384 264 394 264 Z"/></g><g transform="translate(-358,-14) scale(1,1)"><path fill="none" stroke="#000000" d="M 394 264 L 721.79345703125 264 Q 731.79345703125 264 731.79345703125 274 L 731.79345703125 294 Q 731.79345703125 304 721.79345703125 304 L 394 304 Q 384 304 384 294 L 384 274 Q 384 264 394 264 Z" stroke-miterlimit="10"/></g><g transform="translate(-358,-14) scale(1,1)"><g><path fill="none" stroke="none"/><text fill="#000000" stroke="none" font-family="Arial" font-size="13px" font-style="normal" font-weight="bold" text-decoration="none" x="388.5" y="282">Copiar imagen de entrenamiento a la ruta trainImgPath</text></g></g><g transform="translate(-358,-14) scale(1,1)"><path fill="none" stroke="#000000" d="M 557 241 L 557 263" stroke-miterlimit="10"/></g><g transform="translate(-358,-14) scale(1,1)"><path fill="none" stroke="#000000" d="M 552.790482243984 252.83732514237585 L 557 263 L 561.209517756016 252.83732514237585" stroke-miterlimit="10"/></g><g transform="translate(-358,-14) scale(1,1)"><path fill="none" stroke="#000000" d="M 556 113 L 556 135" stroke-miterlimit="10"/></g><g transform="translate(-358,-14) scale(1,1)"><path fill="none" stroke="#000000" d="M 551.790482243984 124.83732514237585 L 556 135 L 560.209517756016 124.83732514237585" stroke-miterlimit="10"/></g><g transform="translate(-358,-14) scale(1,1)"><path fill="#C0C0C0" stroke="none" d="M 393 335 L 732.37158203125 335 Q 742.37158203125 335 742.37158203125 345 L 742.37158203125 365 Q 742.37158203125 375 732.37158203125 375 L 393 375 Q 383 375 383 365 L 383 345 Q 383 335 393 335 Z" opacity="0.2"/></g><g transform="translate(-358,-14) scale(1,1)"><path fill="#ffffff" stroke="none" d="M 386 328 L 725.37158203125 328 Q 735.37158203125 328 735.37158203125 338 L 735.37158203125 358 Q 735.37158203125 368 725.37158203125 368 L 386 368 Q 376 368 376 358 L 376 338 Q 376 328 386 328 Z"/></g><g transform="translate(-358,-14) scale(1,1)"><path fill="none" stroke="#000000" d="M 386 328 L 725.37158203125 328 Q 735.37158203125 328 735.37158203125 338 L 735.37158203125 358 Q 735.37158203125 368 725.37158203125 368 L 386 368 Q 376 368 376 358 L 376 338 Q 376 328 386 328 Z" stroke-miterlimit="10"/></g><g transform="translate(-358,-14) scale(1,1)"><g><path fill="none" stroke="none"/><text fill="#000000" stroke="none" font-family="Arial" font-size="13px" font-style="normal" font-weight="bold" text-decoration="none" x="380.5" y="346">Copiar anotaciones de la imagen a la ruta trainLabelPath</text></g></g><g transform="translate(-358,-14) scale(1,1)"><path fill="none" stroke="#000000" d="M 556 305 L 556 327" stroke-miterlimit="10"/></g><g transform="translate(-358,-14) scale(1,1)"><path fill="none" stroke="#000000" d="M 551.790482243984 316.83732514237585 L 556 327 L 560.209517756016 316.83732514237585" stroke-miterlimit="10"/></g><g transform="translate(-358,-14) scale(1,1)"><path fill="none" stroke="#000000" d="M 735 356 L 832 356 L 832 88 L 712 88" stroke-miterlimit="10"/></g><g transform="translate(-358,-14) scale(1,1)"><path fill="none" stroke="#000000" d="M 722.1626748576241 83.79048224398402 L 712 88 L 722.1626748576241 92.20951775601598" stroke-miterlimit="10"/></g><g transform="translate(-358,-14) scale(1,1)"><path fill="none" stroke="#000000" d="M 554 44 L 555 71" stroke-miterlimit="10"/></g><g transform="translate(-358,-14) scale(1,1)"><path fill="none" stroke="#000000" d="M 550.417228991706 61.00008950612359 L 555 71 L 558.8304960648887 60.688487021931635" stroke-miterlimit="10"/></g><g transform="translate(-358,-14) scale(1,1)"><path fill="#C0C0C0" stroke="none" d="M 385 431 L 741.70068359375 431 Q 751.70068359375 431 751.70068359375 441 L 751.70068359375 461 Q 751.70068359375 471 741.70068359375 471 L 385 471 Q 375 471 375 461 L 375 441 Q 375 431 385 431 Z" opacity="0.2"/></g><g transform="translate(-358,-14) scale(1,1)"><path fill="#ffffff" stroke="none" d="M 378 424 L 734.70068359375 424 Q 744.70068359375 424 744.70068359375 434 L 744.70068359375 454 Q 744.70068359375 464 734.70068359375 464 L 378 464 Q 368 464 368 454 L 368 434 Q 368 424 378 424 Z"/></g><g transform="translate(-358,-14) scale(1,1)"><path fill="none" stroke="#000000" d="M 378 424 L 734.70068359375 424 Q 744.70068359375 424 744.70068359375 434 L 744.70068359375 454 Q 744.70068359375 464 734.70068359375 464 L 378 464 Q 368 464 368 454 L 368 434 Q 368 424 378 424 Z" stroke-miterlimit="10"/></g><g transform="translate(-358,-14) scale(1,1)"><g><path fill="none" stroke="none"/><text fill="#000000" stroke="none" font-family="Arial" font-size="13px" font-style="normal" font-weight="bold" text-decoration="none" x="466.397705078125" y="442">Extraer imagen de validación</text></g></g><g transform="translate(-358,-14) scale(1,1)"><path fill="none" stroke="#000000" d="M 555 369 L 556 423" stroke-miterlimit="10"/></g><g transform="translate(-358,-14) scale(1,1)"><path fill="none" stroke="#000000" d="M 551.603038433977 412.9170079347985 L 556 423 L 560.0206307240026 412.76112659609436" stroke-miterlimit="10"/></g><g transform="translate(-358,-14) scale(1,1)"><path fill="#C0C0C0" stroke="none" d="M 393 615 L 735.9833984375 615 Q 745.9833984375 615 745.9833984375 625 L 745.9833984375 645 Q 745.9833984375 655 735.9833984375 655 L 393 655 Q 383 655 383 645 L 383 625 Q 383 615 393 615 Z" opacity="0.2"/></g><g transform="translate(-358,-14) scale(1,1)"><path fill="#ffffff" stroke="none" d="M 386 608 L 728.9833984375 608 Q 738.9833984375 608 738.9833984375 618 L 738.9833984375 638 Q 738.9833984375 648 728.9833984375 648 L 386 648 Q 376 648 376 638 L 376 618 Q 376 608 386 608 Z"/></g><g transform="translate(-358,-14) scale(1,1)"><path fill="none" stroke="#000000" d="M 386 608 L 728.9833984375 608 Q 738.9833984375 608 738.9833984375 618 L 738.9833984375 638 Q 738.9833984375 648 728.9833984375 648 L 386 648 Q 376 648 376 638 L 376 618 Q 376 608 386 608 Z" stroke-miterlimit="10"/></g><g transform="translate(-358,-14) scale(1,1)"><g><path fill="none" stroke="none"/><text fill="#000000" stroke="none" font-family="Arial" font-size="13px" font-style="normal" font-weight="bold" text-decoration="none" x="406.141357421875" y="626">Copiar imagen de validación a la ruta valImgPath</text></g></g><g transform="translate(-358,-14) scale(1,1)"><path fill="#C0C0C0" stroke="none" d="M 393 679 L 732.37158203125 679 Q 742.37158203125 679 742.37158203125 689 L 742.37158203125 709 Q 742.37158203125 719 732.37158203125 719 L 393 719 Q 383 719 383 709 L 383 689 Q 383 679 393 679 Z" opacity="0.2"/></g><g transform="translate(-358,-14) scale(1,1)"><path fill="#ffffff" stroke="none" d="M 386 672 L 725.37158203125 672 Q 735.37158203125 672 735.37158203125 682 L 735.37158203125 702 Q 735.37158203125 712 725.37158203125 712 L 386 712 Q 376 712 376 702 L 376 682 Q 376 672 386 672 Z"/></g><g transform="translate(-358,-14) scale(1,1)"><path fill="none" stroke="#000000" d="M 386 672 L 725.37158203125 672 Q 735.37158203125 672 735.37158203125 682 L 735.37158203125 702 Q 735.37158203125 712 725.37158203125 712 L 386 712 Q 376 712 376 702 L 376 682 Q 376 672 386 672 Z" stroke-miterlimit="10"/></g><g transform="translate(-358,-14) scale(1,1)"><g><path fill="none" stroke="none"/><text fill="#000000" stroke="none" font-family="Arial" font-size="13px" font-style="normal" font-weight="bold" text-decoration="none" x="385.549560546875" y="690">Copiar anotaciones de la imagen a la ruta valLabelPath</text></g></g><g transform="translate(-358,-14) scale(1,1)"><path fill="none" stroke="#000000" d="M 556 649 L 556 671" stroke-miterlimit="10"/></g><g transform="translate(-358,-14) scale(1,1)"><path fill="none" stroke="#000000" d="M 551.790482243984 660.8373251423759 L 556 671 L 560.209517756016 660.8373251423759" stroke-miterlimit="10"/></g><g transform="translate(-358,-14) scale(1,1)"><path fill="none" stroke="#000000" d="M 736 695 L 832 696 L 832 448 L 746 447" stroke-miterlimit="10"/></g><g transform="translate(-358,-14) scale(1,1)"><path fill="none" stroke="#000000" d="M 756.2109324608355 442.9089294457004 L 746 447 L 756.1130433165524 451.3273958540367" stroke-miterlimit="10"/></g><g transform="translate(-358,-14) scale(1,1)"><path fill="#C0C0C0" stroke="none" d="M 393 495 L 723.70703125 495 Q 733.70703125 495 733.70703125 505 L 733.70703125 525 Q 733.70703125 535 723.70703125 535 L 393 535 Q 383 535 383 525 L 383 505 Q 383 495 393 495 Z" opacity="0.2"/></g><g transform="translate(-358,-14) scale(1,1)"><path fill="#ffffff" stroke="none" d="M 386 488 L 716.70703125 488 Q 726.70703125 488 726.70703125 498 L 726.70703125 518 Q 726.70703125 528 716.70703125 528 L 386 528 Q 376 528 376 518 L 376 498 Q 376 488 386 488 Z"/></g><g transform="translate(-358,-14) scale(1,1)"><path fill="none" stroke="#000000" d="M 386 488 L 716.70703125 488 Q 726.70703125 488 726.70703125 498 L 726.70703125 518 Q 726.70703125 528 716.70703125 528 L 386 528 Q 376 528 376 518 L 376 498 Q 376 488 386 488 Z" stroke-miterlimit="10"/></g><g transform="translate(-358,-14) scale(1,1)"><g><path fill="none" stroke="none"/><text fill="#000000" stroke="none" font-family="Arial" font-size="13px" font-style="normal" font-weight="bold" text-decoration="none" x="380.5" y="506">Obtener nombre del archivo de la imagen de validación</text></g></g><g transform="translate(-358,-14) scale(1,1)"><path fill="none" stroke="#000000" d="M 554 465 L 553 487" stroke-miterlimit="10"/></g><g transform="translate(-358,-14) scale(1,1)"><path fill="none" stroke="#000000" d="M 549.2562874862449 476.6566631779511 L 553 487 L 557.6666391016781 477.0389518877435" stroke-miterlimit="10"/></g><g transform="translate(-358,-14) scale(1,1)"><path fill="#C0C0C0" stroke="none" d="M 393 559 L 735.9833984375 559 Q 745.9833984375 559 745.9833984375 569 L 745.9833984375 589 Q 745.9833984375 599 735.9833984375 599 L 393 599 Q 383 599 383 589 L 383 569 Q 383 559 393 559 Z" opacity="0.2"/></g><g transform="translate(-358,-14) scale(1,1)"><path fill="#ffffff" stroke="none" d="M 386 552 L 728.9833984375 552 Q 738.9833984375 552 738.9833984375 562 L 738.9833984375 582 Q 738.9833984375 592 728.9833984375 592 L 386 592 Q 376 592 376 582 L 376 562 Q 376 552 386 552 Z"/></g><g transform="translate(-358,-14) scale(1,1)"><path fill="none" stroke="#000000" d="M 386 552 L 728.9833984375 552 Q 738.9833984375 552 738.9833984375 562 L 738.9833984375 582 Q 738.9833984375 592 728.9833984375 592 L 386 592 Q 376 592 376 582 L 376 562 Q 376 552 386 552 Z" stroke-miterlimit="10"/></g><g transform="translate(-358,-14) scale(1,1)"><g><path fill="none" stroke="none"/><text fill="#000000" stroke="none" font-family="Arial" font-size="13px" font-style="normal" font-weight="bold" text-decoration="none" x="380.5" y="570">Obtener nombre del archivo de anotaciones de la imagen</text></g></g><g transform="translate(-358,-14) scale(1,1)"><path fill="none" stroke="#000000" d="M 553 529 L 555 551" stroke-miterlimit="10"/></g><g transform="translate(-358,-14) scale(1,1)"><path fill="none" stroke="#000000" d="M 549.887684514256 541.2601729802722 L 555 551 L 558.272144785699 540.4979493192318" stroke-miterlimit="10"/></g><g transform="translate(-358,-14) scale(1,1)"><path fill="none" stroke="#000000" d="M 557 593 L 557 607" stroke-miterlimit="10"/></g><g transform="translate(-358,-14) scale(1,1)"><path fill="none" stroke="#000000" d="M 552.790482243984 596.8373251423759 L 557 607 L 561.209517756016 596.8373251423759" stroke-miterlimit="10"/></g><g transform="translate(-358,-14) scale(1,1)"><path fill="#C0C0C0" stroke="none" d="M 551 755.5 C 551 748.59644 556.59644 743 563.5 743 C 570.40356 743 576 748.59644 576 755.5 C 576 762.40356 570.40356 768 563.5 768 C 556.59644 768 551 762.40356 551 755.5 Z" opacity="0.2"/></g><g transform="translate(-358,-14) scale(1,1)"><path fill="none" stroke="#000000" d="M 544 748.5 C 544 741.59644 549.59644 736 556.5 736 C 563.40356 736 569 741.59644 569 748.5 C 569 755.40356 563.40356 761 556.5 761 C 549.59644 761 544 755.40356 544 748.5 Z" stroke-miterlimit="10"/></g><g transform="translate(-358,-14) scale(1,1)"><path fill="#000000" stroke="none" d="M 549 748.5 C 549 744.357864 552.357864 741 556.5 741 C 560.642136 741 564 744.357864 564 748.5 C 564 752.642136 560.642136 756 556.5 756 C 552.357864 756 549 752.642136 549 748.5 Z"/></g><g transform="translate(-358,-14) scale(1,1)"><path fill="none" stroke="#000000" d="M 555 713 L 556 735" stroke-miterlimit="10"/></g><g transform="translate(-358,-14) scale(1,1)"><path fill="none" stroke="#000000" d="M 551.3333608983219 725.0389518877435 L 556 735 L 559.7437125137551 724.656663177951" stroke-miterlimit="10"/></g></g></svg>